<svg width="20" height="19" viewBox="0 0 20 19" fill="none" xmlns="http://www.w3.org/2000/svg">
<mask id="mask0_226_6804" style="mask-type:alpha" maskUnits="userSpaceOnUse" x="0" y="0" width="20" height="19">
<rect x="0.347656" y="0.275391" width="19.4788" height="18.1785" fill="#D9D9D9"/>
</mask>
<g mask="url(#mask0_226_6804)">
<path d="M14.6928 12.1239C14.6928 13.354 14.2341 14.4007 13.3169 15.2641C12.3997 16.1275 11.2833 16.5593 9.96753 16.5593C8.65176 16.5593 7.53396 16.1275 6.61413 15.2641C5.69429 14.4007 5.23438 13.354 5.23438 12.1239V5.31418C5.23438 4.44022 5.55956 3.69736 6.20994 3.08561C6.86018 2.47385 7.65354 2.16797 8.59001 2.16797C9.52648 2.16797 10.3199 2.47385 10.9703 3.08561C11.6207 3.69736 11.9459 4.44022 11.9459 5.31418V11.7598C11.9459 12.2724 11.7545 12.7101 11.3718 13.0728C10.989 13.4355 10.5226 13.6168 9.97261 13.6168C9.42246 13.6168 8.95308 13.4368 8.56445 13.0766C8.17582 12.7164 7.9815 12.2775 7.9815 11.7598V5.11043H9.19873V11.7598C9.19873 11.9628 9.27184 12.1337 9.41807 12.2726C9.56429 12.4114 9.74616 12.4809 9.96368 12.4809C10.1811 12.4809 10.3629 12.4114 10.5091 12.2726C10.6553 12.1337 10.7284 11.9628 10.7284 11.7598V5.30698C10.72 4.74761 10.5119 4.27396 10.1039 3.88603C9.69591 3.49809 9.19129 3.30413 8.59001 3.30413C7.99131 3.30413 7.48526 3.49929 7.07188 3.88962C6.6585 4.28008 6.4518 4.75494 6.4518 5.31418V12.1239C6.44342 13.0397 6.78261 13.8184 7.46937 14.4602C8.15613 15.1022 8.9898 15.4231 9.97037 15.4231C10.937 15.4231 11.7587 15.1022 12.4355 14.4602C13.1121 13.8184 13.4587 13.0397 13.4753 12.1239V5.11043H14.6928V12.1239Z" fill="white"/>
</g>
</svg>
