<svg width="10" height="15" viewBox="0 0 10 15" fill="none" xmlns="http://www.w3.org/2000/svg">
<path d="M9.57168 10.0888C9.57168 11.3188 9.11305 12.3656 8.19579 13.2289C7.27866 14.0924 6.16221 14.5241 4.84644 14.5241C3.53067 14.5241 2.41287 14.0924 1.49303 13.2289C0.573198 12.3656 0.113281 11.3188 0.113281 10.0888V3.27902C0.113281 2.40506 0.43847 1.66221 1.08885 1.05045C1.73909 0.438692 2.53245 0.132812 3.46892 0.132812C4.40539 0.132812 5.19882 0.438692 5.84919 1.05045C6.49957 1.66221 6.82476 2.40506 6.82476 3.27902V9.72463C6.82476 10.2373 6.63342 10.675 6.25074 11.0376C5.86793 11.4003 5.40152 11.5817 4.85151 11.5817C4.30137 11.5817 3.83198 11.4016 3.44335 11.0414C3.05472 10.6813 2.86041 10.2423 2.86041 9.72463V3.07527H4.07763V9.72463C4.07763 9.92762 4.15075 10.0985 4.29697 10.2374C4.4432 10.3763 4.62507 10.4457 4.84258 10.4457C5.05996 10.4457 5.24177 10.3763 5.38799 10.2374C5.53422 10.0985 5.60733 9.92762 5.60733 9.72463V3.27182C5.59894 2.71246 5.39076 2.23881 4.98279 1.85087C4.57482 1.46294 4.07019 1.26897 3.46892 1.26897C2.87021 1.26897 2.36417 1.46414 1.95079 1.85447C1.5374 2.24493 1.33071 2.71978 1.33071 3.27902V10.0888C1.32232 11.0045 1.66151 11.7833 2.34828 12.4251C3.03504 13.067 3.86871 13.388 4.84928 13.388C5.81592 13.388 6.63761 13.067 7.31437 12.4251C7.99099 11.7833 8.33762 11.0045 8.35425 10.0888V3.07527H9.57168V10.0888Z" fill="white"/>
</svg>
