<svg width="20" height="19" viewBox="0 0 20 19" fill="none" xmlns="http://www.w3.org/2000/svg">
<mask id="mask0_1862_62422" style="mask-type:alpha" maskUnits="userSpaceOnUse" x="0" y="0" width="20" height="19">
<rect x="0.226562" y="0.240234" width="19.4788" height="18.1785" fill="#D9D9D9"/>
</mask>
<g mask="url(#mask0_1862_62422)">
<path d="M14.5717 12.0888C14.5717 13.3188 14.113 14.3656 13.1958 15.2289C12.2787 16.0924 11.1622 16.5241 9.84644 16.5241C8.53067 16.5241 7.41287 16.0924 6.49303 15.2289C5.5732 14.3656 5.11328 13.3188 5.11328 12.0888V5.27902C5.11328 4.40506 5.43847 3.66221 6.08885 3.05045C6.73909 2.43869 7.53245 2.13281 8.46892 2.13281C9.40539 2.13281 10.1988 2.43869 10.8492 3.05045C11.4996 3.66221 11.8248 4.40506 11.8248 5.27902V11.7246C11.8248 12.2373 11.6334 12.675 11.2507 13.0376C10.8679 13.4003 10.4015 13.5817 9.85151 13.5817C9.30137 13.5817 8.83198 13.4016 8.44335 13.0414C8.05472 12.6813 7.86041 12.2423 7.86041 11.7246V5.07527H9.07763V11.7246C9.07763 11.9276 9.15075 12.0985 9.29697 12.2374C9.4432 12.3763 9.62507 12.4457 9.84258 12.4457C10.06 12.4457 10.2418 12.3763 10.388 12.2374C10.5342 12.0985 10.6073 11.9276 10.6073 11.7246V5.27182C10.5989 4.71246 10.3908 4.23881 9.98279 3.85087C9.57482 3.46294 9.07019 3.26897 8.46892 3.26897C7.87021 3.26897 7.36417 3.46414 6.95079 3.85447C6.5374 4.24493 6.33071 4.71978 6.33071 5.27902V12.0888C6.32232 13.0045 6.66151 13.7833 7.34828 14.4251C8.03504 15.067 8.86871 15.388 9.84928 15.388C10.8159 15.388 11.6376 15.067 12.3144 14.4251C12.991 13.7833 13.3376 13.0045 13.3543 12.0888V5.07527H14.5717V12.0888Z" fill="white"/>
</g>
</svg>
