<svg width="50" height="51" viewBox="0 0 50 51" fill="none" xmlns="http://www.w3.org/2000/svg">
<path d="M40.0312 32.5442C38.7097 30.9043 37.1098 29.4263 35.3949 28.1501C32.5718 26.0495 29.1299 24.3484 25.4442 24.5053V23.9843C29.7752 23.8541 34.1676 24.5368 37.9534 26.5909C39.0246 27.1723 40.0339 27.8482 40.9335 28.6452C41.2019 28.8833 41.4626 29.1303 41.7052 29.392C41.839 29.5357 42.001 29.7399 41.8444 29.5417C42.4842 30.3544 43.9557 29.565 43.3083 28.7416C40.7833 25.5311 36.1988 23.667 32.1655 22.8947C30.1756 22.5141 28.1489 22.3639 26.1222 22.3878C30.2903 21.302 34.6604 21.2854 38.7629 22.7233C40.0675 23.1805 41.3179 23.7874 42.4738 24.5146C43.0171 24.857 43.2246 24.9799 43.6723 25.3712C44.4686 26.067 45.6699 24.9489 44.8709 24.251C43.291 22.8705 41.2165 21.8974 39.2139 21.1956C35.0717 19.7437 30.581 19.6952 26.3347 20.6938C29.9786 18.7056 34.0725 17.4743 38.3385 17.7214C39.6184 17.7954 40.8879 18.0098 42.1111 18.3738C42.7417 18.5614 42.9492 18.6222 43.392 18.8408C44.3553 19.318 45.2126 17.9511 44.2474 17.4731C42.4719 16.594 40.3156 16.2516 38.3385 16.1372C33.8673 15.8782 29.5045 17.1575 25.6618 19.2266C29.0111 15.6336 34.4715 13.7202 39.5251 13.7738C40.6163 13.7848 40.6172 12.2006 39.5251 12.1892C34.5385 12.1368 29.1022 13.8674 25.4442 17.1405V17.0894C25.4469 17.0856 25.4501 17.0822 25.4534 17.0779C27.521 14.1179 30.6739 11.6482 33.8505 9.7573C34.7683 9.21126 33.9187 7.83967 32.9954 8.38957C30.2548 10.0206 27.5665 12.0472 25.4579 14.4258C25.4633 14.4003 25.467 14.3739 25.4693 14.3467C26.0043 12.8799 26.8839 11.5478 27.9969 10.4004C28.3609 10.0253 28.7459 9.66761 29.1532 9.33373C29.2733 9.23547 29.3957 9.14023 29.519 9.04583C29.5286 9.0382 29.5363 9.03217 29.544 9.02624C29.5477 9.02416 29.5513 9.02162 29.5563 9.01823C30.4282 8.42235 29.5836 7.0469 28.7008 7.65002C27.4323 8.51675 26.327 9.6255 25.4442 10.8682V6.28521C25.4442 5.88209 25.0911 5.55207 24.6597 5.55207H24.5173C24.0855 5.55207 23.7324 5.88209 23.7324 6.28521V10.8134C22.8565 9.59319 21.7657 8.50403 20.5158 7.65002C19.6343 7.04784 18.7875 8.42188 19.6603 9.01823C19.6631 9.01992 19.6644 9.02077 19.6662 9.022C19.668 9.02369 19.6689 9.02454 19.6707 9.02586C19.8032 9.12751 19.9352 9.22869 20.0634 9.33373C20.4708 9.66761 20.8557 10.0257 21.2197 10.4004C22.3231 11.5364 23.1959 12.8565 23.7324 14.3071V14.3969C21.6279 12.031 18.951 10.0142 16.2216 8.38957C15.2988 7.84014 14.4475 9.21089 15.3662 9.7573C18.5273 11.6393 21.6643 14.0957 23.7324 17.0355V17.1038C20.0748 13.8542 14.66 12.1368 9.69151 12.1892C8.60123 12.2006 8.59851 13.7848 9.69151 13.7738C14.7455 13.7202 20.2054 15.6336 23.5554 19.2266C19.7127 17.1575 15.3493 15.8782 10.8782 16.1372C8.90067 16.2516 6.7452 16.594 4.96923 17.4731C4.00497 17.9502 4.86044 19.3184 5.8251 18.8408C5.94115 18.7834 6.06173 18.734 6.18141 18.6847C6.11043 18.7141 6.32336 18.6307 6.48851 18.5729C6.69237 18.5014 6.89855 18.4355 7.10554 18.3738C8.3282 18.0098 9.59825 17.7954 10.8782 17.7214C15.1441 17.4743 19.238 18.7056 22.8819 20.6938C18.6356 19.6952 14.1453 19.7437 10.0027 21.1956C8.00013 21.8974 5.92562 22.8705 4.34575 24.251C3.54724 24.9489 4.74762 26.0674 5.54432 25.3712C5.99166 24.9803 6.20006 24.8566 6.74288 24.5146C7.8982 23.7874 9.14909 23.1805 10.4537 22.7233C14.5572 21.285 18.9273 21.302 23.0962 22.3881C17.2337 22.3346 11.0411 23.8066 6.81568 27.7699C6.49083 28.0743 6.18141 28.395 5.90838 28.7416C5.26181 29.5642 6.732 30.3553 7.37221 29.5417C7.21614 29.7399 7.37766 29.5357 7.51145 29.392C7.75443 29.1303 8.01475 28.8833 8.28314 28.6452C9.18277 27.8482 10.192 27.1723 11.2636 26.5909C15.0377 24.5432 19.4146 23.8584 23.7324 23.9826V24.5036C20.0616 24.3602 16.6344 26.0572 13.8218 28.1501C12.1068 29.4263 10.507 30.9043 9.18549 32.5442C8.54346 33.3408 9.93631 34.1136 10.6048 33.3935C10.5816 33.4216 10.5715 33.4352 10.6189 33.3808C10.7012 33.2859 10.7818 33.1898 10.8646 33.0954C11.1267 32.7973 11.3974 32.5055 11.675 32.2193C12.6164 31.2462 13.6316 30.3323 14.7173 29.4995C17.2632 27.5457 20.3793 25.9768 23.7324 26.0891V26.3498C19.1775 27.1702 15.3803 30.7125 13.2539 34.4453C12.7416 35.3452 14.2041 36.1465 14.7173 35.2453C16.5301 32.0628 19.8123 28.7208 23.7324 27.94V29.7534C22.871 30.0163 22.244 30.775 22.244 31.6651V32.3792C21.9628 32.2644 21.6838 32.1453 21.4076 32.0237C20.7869 31.7497 20.0362 31.862 19.6685 32.4498C19.345 32.9665 19.5006 33.8006 20.1244 34.0757C20.8161 34.3806 21.5236 34.6797 22.244 34.9412V48.8849C22.244 49.9907 23.2123 50.8957 24.3953 50.8957H24.6079C25.7909 50.8957 26.7593 49.9907 26.7593 48.8849V35.019C27.5538 34.74 28.3318 34.4109 29.0922 34.0757C29.7133 33.8018 29.8731 32.9691 29.5481 32.4498C29.1764 31.8556 28.4319 31.7489 27.8091 32.0237C27.4631 32.1759 27.1133 32.3243 26.7593 32.4647V31.6651C26.7593 30.8358 26.2151 30.1196 25.4442 29.813V27.9328C29.3821 28.6987 32.6805 32.0522 34.4994 35.2453C35.0121 36.1452 36.476 35.3461 35.9627 34.4453C33.8304 30.7019 30.0168 27.1494 25.4442 26.3426V26.0908C28.8128 25.9649 31.9434 27.5381 34.4998 29.4995C35.5682 30.3195 36.5688 31.2181 37.4984 32.1746C37.7906 32.4753 38.0763 32.7815 38.3521 33.0954C38.4303 33.1847 38.5072 33.2749 38.5846 33.3646C38.6501 33.4412 38.6329 33.4199 38.6041 33.385C39.2689 34.1186 40.6759 33.3446 40.0312 32.5442ZM46.7096 25.2457C46.3374 30.4063 43.8985 35.2172 39.9361 38.8143C38.7602 39.8818 40.5589 41.5614 41.7343 40.4947C46.1908 36.4488 48.8351 31.0319 49.2523 25.2457C49.3625 23.719 46.8193 23.7253 46.7096 25.2457ZM2.54477 25.025C2.45192 23.5046 -0.0917118 23.4948 0.00255639 25.025C0.37479 31.1007 3.22229 36.8087 8.02927 40.9272C9.23378 41.959 11.0366 40.2829 9.82752 39.2465C5.52072 35.557 2.8797 30.4884 2.54477 25.025ZM0.0503458 22.073C0.520376 17.0286 2.66314 12.2772 6.27699 8.49292C12.7392 1.72434 23.2733 -0.885635 32.474 2.02459C41.6606 4.93029 48.1516 12.671 49.1759 21.649C49.2492 22.2912 48.5357 22.8373 47.9045 22.8373C47.1656 22.8373 46.7064 22.287 46.6337 21.649C46.1262 17.2051 44.0258 12.9641 40.7447 9.71651C34.74 3.7734 25.3896 1.68393 17.1486 4.41986C9.11542 7.08693 3.33108 14.1507 2.59307 22.073C2.45151 23.5875 -0.0917118 23.5965 0.0503458 22.073Z" fill="url(#paint0_linear_874_1351)"/>
<defs>
<linearGradient id="paint0_linear_874_1351" x1="24.6279" y1="0.847656" x2="24.6279" y2="50.8957" gradientUnits="userSpaceOnUse">
<stop offset="0.174941" stop-color="#177938"/>
<stop offset="0.500039" stop-color="white"/>
<stop offset="0.844941" stop-color="#FF0000"/>
</linearGradient>
</defs>
</svg>
