<svg width="54" height="51" viewBox="0 0 54 51" fill="none" xmlns="http://www.w3.org/2000/svg">
<mask id="mask0_369_1542" style="mask-type:luminance" maskUnits="userSpaceOnUse" x="23" y="0" width="8" height="7">
<path d="M23.2793 0.0976562H30.9715V6.91306H23.2793V0.0976562Z" fill="white"/>
</mask>
<g mask="url(#mask0_369_1542)">
<path fill-rule="evenodd" clip-rule="evenodd" d="M29.5041 6.89221L27.1326 5.30873L24.7728 6.90776L25.6504 4.30934L23.2949 2.70474L26.2091 2.6824L27.1131 0.0917969L28.0363 2.67636L30.9505 2.67985L28.6071 4.29953L29.5041 6.89221Z" fill="white"/>
</g>
<path fill-rule="evenodd" clip-rule="evenodd" d="M17.8859 9.82785L15.5145 8.24437L13.1546 9.8434L14.0323 7.24488L11.6768 5.64038L14.591 5.61794L15.4949 3.02734L16.4181 5.612L19.3323 5.6154L16.9889 7.23508L17.8859 9.82785Z" fill="white"/>
<path fill-rule="evenodd" clip-rule="evenodd" d="M40.8381 9.76525L38.4666 8.18178L36.1067 9.78081L36.9844 7.18229L34.6289 5.57779L37.5431 5.55544L38.447 2.96484L39.3703 5.54941L42.2845 5.5528L39.941 7.17248L40.8381 9.76525Z" fill="white"/>
<path fill-rule="evenodd" clip-rule="evenodd" d="M49.2492 17.7613L46.8778 16.1779L44.5178 17.7769L45.3956 15.1785L43.04 13.5739L45.9543 13.5515L46.8581 10.9609L47.7814 13.5455L50.6956 13.549L48.3521 15.1687L49.2492 17.7613Z" fill="white"/>
<path fill-rule="evenodd" clip-rule="evenodd" d="M52.3859 28.4899L50.0145 26.9064L47.6546 28.5054L48.5323 25.9069L46.1768 24.3024L49.091 24.2801L49.9948 21.6895L50.9181 24.274L53.8323 24.2774L51.4889 25.8971L52.3859 28.4899Z" fill="white"/>
<path fill-rule="evenodd" clip-rule="evenodd" d="M49.2492 39.2888L46.8778 37.7053L44.5178 39.3043L45.3956 36.7058L43.04 35.1012L45.9543 35.0789L46.8581 32.4883L47.7814 35.0729L50.6956 35.0763L48.3521 36.696L49.2492 39.2888Z" fill="white"/>
<path fill-rule="evenodd" clip-rule="evenodd" d="M40.7668 47.152L38.3953 45.5685L36.0354 47.1675L36.9131 44.569L34.5576 42.9645L37.4718 42.9422L38.3757 40.3516L39.299 42.9361L42.2132 42.9395L39.8698 44.5592L40.7668 47.152Z" fill="white"/>
<mask id="mask1_369_1542" style="mask-type:luminance" maskUnits="userSpaceOnUse" x="23" y="43" width="8" height="8">
<path d="M23.2012 43.2109H30.8934V50.0386H23.2012V43.2109Z" fill="white"/>
</mask>
<g mask="url(#mask1_369_1542)">
<path fill-rule="evenodd" clip-rule="evenodd" d="M29.4329 50.0173L27.0614 48.4338L24.7015 50.0329L25.5791 47.4343L23.2236 45.8298L26.1378 45.8074L27.0418 43.2168L27.965 45.8015L30.8793 45.8049L28.5358 47.4245L29.4329 50.0173Z" fill="white"/>
</g>
<path fill-rule="evenodd" clip-rule="evenodd" d="M17.8138 47.0856L15.4422 45.5021L13.0824 47.1011L13.96 44.5026L11.6045 42.8981L14.5187 42.8758L15.4227 40.2852L16.3459 42.8697L19.2602 42.8731L16.9167 44.4928L17.8138 47.0856Z" fill="white"/>
<path fill-rule="evenodd" clip-rule="evenodd" d="M9.54511 39.2224L7.17366 37.6389L4.81382 39.2379L5.69145 36.6394L3.33594 35.0349L6.25015 35.0125L7.1541 32.4219L8.07731 35.0065L10.9915 35.0099L8.64812 36.6296L9.54511 39.2224Z" fill="white"/>
<path fill-rule="evenodd" clip-rule="evenodd" d="M6.48066 28.359L4.10911 26.7755L1.74926 28.3746L2.627 25.7761L0.271484 24.1715L3.1857 24.1492L4.08955 21.5586L5.01286 24.1433L7.92708 24.1466L5.58356 25.7663L6.48066 28.359Z" fill="white"/>
<path fill-rule="evenodd" clip-rule="evenodd" d="M9.76005 17.4919L7.38851 15.9084L5.02866 17.5075L5.90639 14.9089L3.55078 13.3044L6.4651 13.282L7.36895 10.6914L8.29216 13.2761L11.2065 13.2795L8.86296 14.8991L9.76005 17.4919Z" fill="white"/>
</svg>
