<svg width="51" height="51" viewBox="0 0 51 51" fill="none" xmlns="http://www.w3.org/2000/svg">
<path d="M40.9853 31.7942C39.6638 30.1543 38.0639 28.6763 36.349 27.4001C33.5259 25.2995 30.084 23.5984 26.3983 23.7553V23.2343C30.7293 23.1041 35.1217 23.7868 38.9075 25.8409C39.9787 26.4223 40.988 27.0982 41.8876 27.8952C42.156 28.1333 42.4167 28.3803 42.6593 28.642C42.7931 28.7857 42.9551 28.9899 42.7985 28.7917C43.4383 29.6044 44.9098 28.815 44.2624 27.9916C41.7374 24.7811 37.1529 22.917 33.1196 22.1447C31.1297 21.7641 29.103 21.6139 27.0763 21.6378C31.2444 20.552 35.6145 20.5354 39.717 21.9733C41.0216 22.4305 42.272 23.0374 43.4279 23.7646C43.9712 24.107 44.1787 24.2299 44.6264 24.6212C45.4227 25.317 46.624 24.1989 45.825 23.501C44.2451 22.1205 42.1706 21.1474 40.168 20.4456C36.0258 18.9937 31.5351 18.9452 27.2888 19.9438C30.9327 17.9556 35.0266 16.7243 39.2926 16.9714C40.5725 17.0454 41.842 17.2598 43.0652 17.6238C43.6958 17.8114 43.9033 17.8722 44.3461 18.0908C45.3094 18.568 46.1667 17.2011 45.2015 16.7231C43.426 15.844 41.2697 15.5016 39.2926 15.3872C34.8214 15.1282 30.4586 16.4075 26.6159 18.4766C29.9653 14.8836 35.4256 12.9702 40.4792 13.0238C41.5704 13.0348 41.5713 11.4506 40.4792 11.4392C35.4926 11.3868 30.0563 13.1174 26.3983 16.3905V16.3394C26.401 16.3356 26.4042 16.3322 26.4075 16.3279C28.4751 13.3679 31.628 10.8982 34.8046 9.0073C35.7224 8.46126 34.8728 7.08967 33.9495 7.63957C31.2089 9.27062 28.5206 11.2972 26.412 13.6758C26.4174 13.6503 26.4211 13.6239 26.4234 13.5967C26.9584 12.1299 27.838 10.7978 28.951 9.65037C29.3151 9.27533 29.7 8.91761 30.1073 8.58373C30.2274 8.48547 30.3498 8.39023 30.4731 8.29583C30.4827 8.2882 30.4904 8.28217 30.4981 8.27624C30.5018 8.27416 30.5055 8.27162 30.5104 8.26823C31.3823 7.67235 30.5377 6.2969 29.6549 6.90002C28.3864 7.76675 27.2811 8.8755 26.3983 10.1182V5.53521C26.3983 5.13209 26.0452 4.80207 25.6138 4.80207H25.4714C25.0396 4.80207 24.6865 5.13209 24.6865 5.53521V10.0634C23.8106 8.84319 22.7198 7.75403 21.4699 6.90002C20.5884 6.29784 19.7416 7.67188 20.6145 8.26823C20.6172 8.26992 20.6185 8.27077 20.6203 8.272C20.6221 8.27369 20.623 8.27454 20.6248 8.27586C20.7573 8.37751 20.8893 8.47869 21.0175 8.58373C21.4249 8.91761 21.8098 9.2757 22.1738 9.65037C23.2773 10.7864 24.15 12.1065 24.6865 13.5571V13.6469C22.582 11.281 19.9051 9.26421 17.1757 7.63957C16.2529 7.09014 15.4016 8.46089 16.3203 9.0073C19.4814 10.8893 22.6184 13.3457 24.6865 16.2855V16.3538C21.0289 13.1042 15.6141 11.3868 10.6456 11.4392C9.55533 11.4506 9.55261 13.0348 10.6456 13.0238C15.6996 12.9702 21.1595 14.8836 24.5095 18.4766C20.6668 16.4075 16.3034 15.1282 11.8323 15.3872C9.85477 15.5016 7.6993 15.844 5.92333 16.7231C4.95907 17.2002 5.81455 18.5684 6.77921 18.0908C6.89525 18.0334 7.01583 17.984 7.13551 17.9347C7.06453 17.9641 7.27747 17.8807 7.44261 17.8229C7.64647 17.7514 7.85265 17.6855 8.05964 17.6238C9.2823 17.2598 10.5524 17.0454 11.8323 16.9714C16.0982 16.7243 20.1921 17.9556 23.836 19.9438C19.5897 18.9452 15.0994 18.9937 10.9569 20.4456C8.95423 21.1474 6.87973 22.1205 5.29985 23.501C4.50134 24.1989 5.70173 25.3174 6.49842 24.6212C6.94576 24.2303 7.15416 24.1066 7.69699 23.7646C8.8523 23.0374 10.1032 22.4305 11.4078 21.9733C15.5113 20.535 19.8814 20.552 24.0503 21.6381C18.1878 21.5846 11.9952 23.0566 7.76978 27.0199C7.44493 27.3243 7.13551 27.645 6.86248 27.9916C6.21592 28.8142 7.6861 29.6053 8.32631 28.7917C8.17024 28.9899 8.33176 28.7857 8.46555 28.642C8.70853 28.3803 8.96885 28.1333 9.23724 27.8952C10.1369 27.0982 11.1461 26.4223 12.2177 25.8409C15.9918 23.7932 20.3687 23.1084 24.6865 23.2326V23.7536C21.0157 23.6102 17.5885 25.3072 14.7759 27.4001C13.0609 28.6763 11.4611 30.1543 10.1396 31.7942C9.49756 32.5908 10.8904 33.3636 11.5589 32.6435C11.5357 32.6716 11.5256 32.6852 11.573 32.6308C11.6553 32.5359 11.7359 32.4398 11.8187 32.3454C12.0808 32.0473 12.3515 31.7555 12.6291 31.4693C13.5705 30.4962 14.5857 29.5823 15.6714 28.7495C18.2173 26.7957 21.3334 25.2268 24.6865 25.3391V25.5998C20.1316 26.4202 16.3344 29.9625 14.208 33.6953C13.6957 34.5952 15.1582 35.3965 15.6714 34.4953C17.4842 31.3128 20.7664 27.9708 24.6865 27.19V29.0034C23.8251 29.2663 23.1981 30.025 23.1981 30.9151V31.6292C22.9169 31.5144 22.6379 31.3953 22.3617 31.2737C21.741 30.9997 20.9903 31.112 20.6226 31.6998C20.2991 32.2165 20.4548 33.0506 21.0785 33.3257C21.7702 33.6306 22.4777 33.9297 23.1981 34.1912V48.1349C23.1981 49.2407 24.1664 50.1457 25.3494 50.1457H25.562C26.745 50.1457 27.7134 49.2407 27.7134 48.1349V34.269C28.5079 33.99 29.2859 33.6609 30.0463 33.3257C30.6674 33.0518 30.8272 32.2191 30.5022 31.6998C30.1305 31.1056 29.386 30.9989 28.7632 31.2737C28.4172 31.4259 28.0674 31.5743 27.7134 31.7147V30.9151C27.7134 30.0858 27.1692 29.3696 26.3983 29.063V27.1828C30.3362 27.9487 33.6347 31.3022 35.4535 34.4953C35.9663 35.3952 37.4301 34.5961 36.9168 33.6953C34.7845 29.9519 30.9709 26.3994 26.3983 25.5926V25.3408C29.7669 25.2149 32.8975 26.7881 35.4539 28.7495C36.5223 29.5695 37.5229 30.4681 38.4525 31.4246C38.7447 31.7253 39.0304 32.0315 39.3062 32.3454C39.3844 32.4347 39.4613 32.5249 39.5387 32.6146C39.6042 32.6912 39.587 32.6699 39.5582 32.635C40.223 33.3686 41.63 32.5946 40.9853 31.7942ZM47.6637 24.4957C47.2915 29.6563 44.8526 34.4672 40.8902 38.0643C39.7143 39.1318 41.5131 40.8114 42.6884 39.7447C47.1449 35.6988 49.7892 30.2819 50.2064 24.4957C50.3166 22.969 47.7734 22.9753 47.6637 24.4957ZM3.49887 24.275C3.40602 22.7546 0.86239 22.7448 0.956658 24.275C1.32889 30.3507 4.1764 36.0587 8.98337 40.1772C10.1879 41.209 11.9907 39.5329 10.7816 38.4965C6.47483 34.807 3.8338 29.7384 3.49887 24.275ZM1.00445 21.323C1.47448 16.2786 3.61724 11.5272 7.23109 7.74292C13.6933 0.974344 24.2274 -1.63564 33.4281 1.27459C42.6147 4.18029 49.1057 11.921 50.13 20.899C50.2033 21.5412 49.4898 22.0873 48.8586 22.0873C48.1197 22.0873 47.6605 21.537 47.5878 20.899C47.0803 16.4551 44.9799 12.2141 41.6988 8.96651C35.6941 3.0234 26.3437 0.933927 18.1027 3.66986C10.0695 6.33693 4.28518 13.4007 3.54717 21.323C3.40561 22.8375 0.86239 22.8465 1.00445 21.323Z" fill="white"/>
</svg>
