<svg width="52" height="51" viewBox="0 0 52 51" fill="none" xmlns="http://www.w3.org/2000/svg">
<path d="M0.292969 0.465821H51.1563V49.7887H0.292969V0.465821Z" fill="#999999" stroke="#111111" stroke-width="0.585939"/>
<path d="M7.74121 7.58984V16.2374H10.7383V10.5547H16.7324V7.58984H7.74121Z" fill="white" stroke="white" stroke-width="0.585939"/>
<path fill-rule="evenodd" clip-rule="evenodd" d="M7.50586 7.35742H16.9656V10.7859H10.9715V16.4686H7.50586V7.35742ZM7.97446 7.82099V16.005H10.5029V10.3223H16.497V7.82099H7.97446Z" fill="white" stroke="white" stroke-width="0.585939"/>
<path d="M26.9736 26.6162V35.2638H29.9707V29.5811H35.9648V26.6162H26.9736Z" fill="white" stroke="white" stroke-width="0.585939"/>
<path fill-rule="evenodd" clip-rule="evenodd" d="M26.7393 26.3818H36.199V29.8103H30.2049V35.493H26.7393V26.3818ZM27.2079 26.8454V35.0294H29.7363V29.3467H35.7304V26.8454H27.2079Z" fill="white"/>
<path d="M7.49121 42.9229H16.2326V39.958H10.4883V34.0282H7.49121L7.49121 42.9229Z" fill="white" stroke="white" stroke-width="0.585939"/>
<path fill-rule="evenodd" clip-rule="evenodd" d="M7.25781 43.1533L7.25781 33.7951H10.7235V39.7249H16.4678V43.1533H7.25781ZM7.72641 42.6897H15.9992V40.1884H10.2549V34.2587H7.72641L7.72641 42.6897Z" fill="white" stroke="white" stroke-width="0.585939"/>
<path d="M26.9736 24.6367H35.715V21.6718H29.9707V15.7421H26.9736V24.6367Z" fill="white" stroke="white" stroke-width="0.585939"/>
<path fill-rule="evenodd" clip-rule="evenodd" d="M26.7393 24.873V15.5148H30.2049V21.4446H35.9492V24.873H26.7393ZM27.2079 24.4095H35.4806V21.9082H29.7363V15.9784H27.2079V24.4095Z" fill="white"/>
<path d="M43.8311 42.7979V34.1503H40.834V39.833H34.8399V42.7979H43.8311Z" fill="white" stroke="white" stroke-width="0.585939"/>
<path fill-rule="evenodd" clip-rule="evenodd" d="M44.0664 43.0303H34.6067V39.6018H40.6008V33.9191H44.0664V43.0303ZM43.5978 42.5667V34.3827H41.0694V40.0654H35.0753V42.5667H43.5978Z" fill="white" stroke="white" stroke-width="0.585939"/>
<path d="M24.4746 24.3906V15.7431H21.4776V21.4257H15.4835V24.3906H24.4746Z" fill="white" stroke="white" stroke-width="0.585939"/>
<path fill-rule="evenodd" clip-rule="evenodd" d="M24.7109 24.623H15.2512V21.1946H21.2453V15.5119H24.7109V24.623ZM24.2423 24.1595V15.9755H21.7139V21.6582H15.7198V24.1595H24.2423Z" fill="white"/>
<path d="M43.332 7.71094L34.5906 7.71094V10.6758H40.335V16.6056H43.332V7.71094Z" fill="white" stroke="white" stroke-width="0.585939"/>
<path fill-rule="evenodd" clip-rule="evenodd" d="M43.5664 7.47852V16.8367H40.1008V10.907H34.3564V7.47852L43.5664 7.47852ZM43.0978 7.94209L34.825 7.94209V10.4434H40.5694V16.3732H43.0978V7.94209Z" fill="white" stroke="white" stroke-width="0.585939"/>
<path d="M24.7246 26.1201H15.9832V29.085H21.7276V35.0148H24.7246V26.1201Z" fill="white" stroke="white" stroke-width="0.585939"/>
<path fill-rule="evenodd" clip-rule="evenodd" d="M24.959 25.8848V35.243H21.4933V29.3132H15.749V25.8848H24.959ZM24.4904 26.3483H16.2176V28.8496H21.9619V34.7794H24.4904V26.3483Z" fill="white"/>
<path d="M13.4863 13.7656H18.4814V18.7071H13.4863V13.7656Z" fill="white"/>
<path d="M13.4844 32.0488H18.979V37.4844H13.4844V32.0488Z" fill="white"/>
<path d="M32.9678 32.0488H38.4624V37.4844H32.9678V32.0488Z" fill="white"/>
<path d="M32.4688 13.2725H37.9633V18.7081H32.4688V13.2725Z" fill="white"/>
<path d="M7.49121 21.1797H10.4883V29.086H7.49121V21.1797Z" fill="white"/>
<path d="M41.458 21.1797H43.9555V29.086H41.458V21.1797Z" fill="white"/>
<path d="M21.9766 42.9229V40.4521H29.9687V42.9229H21.9766Z" fill="white"/>
<path d="M21.9766 10.3066V7.83591H29.9687V10.3066H21.9766Z" fill="white"/>
<path d="M10.4883 23.6504H13.4829V26.6128H10.4883V23.6504Z" fill="white"/>
<path d="M38.46 23.6504H41.4545V26.6128H38.46V23.6504Z" fill="white"/>
<path d="M24.4746 10.3066H27.4692V13.2691H24.4746V10.3066Z" fill="white"/>
<path d="M24.4746 37.4824H27.4692V40.4449H24.4746V37.4824Z" fill="white"/>
<path fill-rule="evenodd" clip-rule="evenodd" d="M13.0146 18.6751H10.9565V20.7112H13.0146V18.6751ZM10.4883 18.2119V21.1744H13.4829V18.2119H10.4883Z" fill="white"/>
<path fill-rule="evenodd" clip-rule="evenodd" d="M13.0146 29.5472H10.9565V31.5832H13.0146V29.5472ZM10.4883 29.084V32.0464H13.4829V29.084H10.4883Z" fill="white"/>
<path fill-rule="evenodd" clip-rule="evenodd" d="M40.4893 29.5472H38.4311V31.5832H40.4893V29.5472ZM37.9629 29.084V32.0464H40.9575V29.084H37.9629Z" fill="white"/>
<path fill-rule="evenodd" clip-rule="evenodd" d="M32.4961 37.9456H30.4379V39.9817H32.4961V37.9456ZM29.9697 37.4824V40.4449H32.9643V37.4824H29.9697Z" fill="white"/>
<path fill-rule="evenodd" clip-rule="evenodd" d="M21.5088 37.9456H19.4506V39.9817H21.5088V37.9456ZM18.9824 37.4824V40.4449H21.977V37.4824H18.9824Z" fill="white"/>
<path fill-rule="evenodd" clip-rule="evenodd" d="M40.9863 18.6751H38.9282V20.7112H40.9863V18.6751ZM38.46 18.2119V21.1744H41.4545V18.2119H38.46Z" fill="white"/>
<path fill-rule="evenodd" clip-rule="evenodd" d="M32.4961 10.7698H30.4379V12.8059H32.4961V10.7698ZM29.9697 10.3066V13.2691H32.9643V10.3066H29.9697Z" fill="white"/>
<path fill-rule="evenodd" clip-rule="evenodd" d="M21.0088 11.263H18.9506V13.2991H21.0088V11.263ZM18.4824 10.7998V13.7622H21.477V10.7998H18.4824Z" fill="white"/>
</svg>
