<svg width="158" height="86" viewBox="0 0 158 86" fill="none" xmlns="http://www.w3.org/2000/svg">
<path d="M3.46671 84.3146L5.64626 80.029C5.69805 79.9195 5.87987 79.9027 5.94892 80.02L8.12847 84.3134L10.3 79.4902C10.3264 79.4232 10.3782 79.3974 10.4381 79.3974C10.5336 79.3974 10.6279 79.4902 10.5762 79.5987L8.25736 84.708C8.20558 84.8254 8.04102 84.8176 7.98003 84.708L5.79126 80.3722L3.6025 84.708C3.55071 84.8176 3.3781 84.8254 3.32516 84.708L1.01557 79.5987C0.963784 79.4891 1.0593 79.3974 1.15366 79.3974C1.20545 79.3974 1.25723 79.4232 1.2837 79.4902L3.46325 84.3134L3.46671 84.3146ZM16.5809 79.5584C16.5809 79.4489 16.6591 79.3986 16.7362 79.3986C16.8133 79.3986 16.8916 79.4489 16.8916 79.5584V84.6007C16.8916 84.6935 16.8133 84.7438 16.7362 84.7438C16.6591 84.7438 16.5809 84.6935 16.5809 84.6007V79.5584ZM27.4614 79.5584C27.4614 79.4489 27.5397 79.3986 27.6087 79.3986C27.687 79.3986 27.756 79.4489 27.756 79.5584V84.575C27.756 84.6845 27.695 84.7348 27.626 84.7348C27.5742 84.7348 27.5051 84.7013 27.4533 84.6421L23.6903 79.9116V84.5918C23.6903 84.6924 23.6213 84.7427 23.5522 84.7427C23.474 84.7427 23.4049 84.6924 23.4049 84.5918V79.5752C23.4049 79.4578 23.4659 79.3986 23.543 79.3986C23.5948 79.3986 23.6558 79.4243 23.7076 79.4913L27.4626 84.2218V79.5584H27.4614ZM36.2786 84.7427H34.2717C34.1416 84.7427 34.038 84.6421 34.038 84.5236V79.6076C34.038 79.4902 34.1416 79.3974 34.2717 79.3974H36.2786C39.6699 79.3974 39.6699 84.7415 36.2786 84.7415V84.7427ZM34.3234 84.4822H36.2786C39.289 84.4822 39.289 79.6501 36.2786 79.6501H34.3234V84.4822ZM47.4146 84.8265C45.9174 84.8265 44.6205 83.5992 44.6631 81.9784C44.7241 80.0793 46.1683 79.3147 47.3617 79.3147C48.555 79.3147 50.1132 80.1218 50.1649 81.9784C50.2167 83.6003 48.9186 84.8265 47.4134 84.8265H47.4146ZM44.9577 81.9862C44.914 83.4315 46.0739 84.5661 47.4146 84.5661C48.7552 84.5661 49.9233 83.4315 49.8807 81.9862C49.8289 80.2637 48.3927 79.583 47.3628 79.583C46.273 79.583 45.0095 80.2716 44.9577 81.9862ZM58.1214 84.3134L60.3009 80.0279C60.3527 79.9183 60.5345 79.9016 60.6036 80.0189L62.7831 84.3123L64.9546 79.4891C64.9811 79.422 65.0329 79.3963 65.0927 79.3963C65.1882 79.3963 65.2826 79.4891 65.2308 79.5975L62.912 84.7069C62.8602 84.8243 62.6957 84.8164 62.6347 84.7069L60.4459 80.371L58.2571 84.7069C58.2054 84.8164 58.0316 84.8243 57.9798 84.7069L55.6702 79.5975C55.6184 79.488 55.7139 79.3963 55.8083 79.3963C55.8601 79.3963 55.9119 79.422 55.9383 79.4891L58.1179 84.3123L58.1214 84.3134ZM70.7338 83.6159C70.682 83.4483 70.9409 83.3723 70.9939 83.5489C71.262 84.4476 72.7235 84.5906 73.2344 84.5906C74.0906 84.5906 75.414 84.3045 75.414 83.2627C75.414 81.3301 70.8466 83.0694 70.8466 80.8003C70.8466 79.6411 72.3955 79.3125 73.1389 79.3125C73.9697 79.3125 75.1631 79.4969 75.4922 80.371C75.5785 80.5722 75.3104 80.6315 75.2494 80.4638C74.9548 79.6735 73.8823 79.5651 73.1469 79.5651C72.2045 79.5651 71.1308 80.01 71.1308 80.8092C71.1308 82.734 75.6982 81.0529 75.6982 83.2549C75.6982 84.49 74.2793 84.8265 73.2321 84.8265C72.3495 84.8265 71.0088 84.5906 70.7315 83.6159H70.7338ZM88.5546 83.6159C88.5028 83.4483 88.7617 83.3723 88.8147 83.5489C89.0828 84.4476 90.5454 84.5906 91.0552 84.5906C91.9114 84.5906 93.2348 84.3045 93.2348 83.2627C93.2348 81.3301 88.6674 83.0694 88.6674 80.8003C88.6674 79.6411 90.2163 79.3125 90.9597 79.3125C91.7906 79.3125 92.9839 79.4969 93.313 80.371C93.3993 80.5722 93.1312 80.6315 93.0702 80.4638C92.7756 79.6735 91.7031 79.5651 90.9678 79.5651C90.0253 79.5651 88.9516 80.01 88.9516 80.8092C88.9516 82.734 93.519 81.0529 93.519 83.2549C93.519 84.49 92.1001 84.8265 91.0529 84.8265C90.1703 84.8265 88.8296 84.5906 88.5523 83.6159H88.5546ZM101.302 82.5652L99.0347 79.6322C98.9311 79.5148 99.0001 79.3963 99.1129 79.3963C99.1566 79.3963 99.2084 79.4131 99.251 79.4634L101.448 82.3283L103.637 79.4634C103.68 79.4131 103.732 79.3963 103.775 79.3963C103.887 79.3963 103.947 79.5137 103.853 79.6322L101.595 82.5652V84.5817C101.595 84.6912 101.517 84.7415 101.448 84.7415C101.37 84.7415 101.301 84.6912 101.301 84.5817V82.5652H101.302ZM109.349 83.6159C109.297 83.4483 109.556 83.3723 109.608 83.5489C109.876 84.4476 111.339 84.5906 111.848 84.5906C112.706 84.5906 114.029 84.3045 114.029 83.2627C114.029 81.3301 109.462 83.0694 109.462 80.8003C109.462 79.6411 111.01 79.3125 111.754 79.3125C112.585 79.3125 113.779 79.4969 114.107 80.371C114.194 80.5722 113.926 80.6315 113.866 80.4638C113.571 79.6735 112.499 79.5651 111.763 79.5651C110.821 79.5651 109.748 80.01 109.748 80.8092C109.748 82.734 114.316 81.0529 114.316 83.2549C114.316 84.49 112.897 84.8265 111.85 84.8265C110.968 84.8265 109.626 84.5906 109.35 83.6159H109.349ZM119.531 79.3974H124.298C124.506 79.3974 124.506 79.6501 124.298 79.6501H122.057L122.065 84.5828C122.065 84.6924 121.979 84.7427 121.91 84.7427C121.841 84.7427 121.762 84.6924 121.762 84.5828V79.6501H119.531C119.323 79.6501 119.323 79.3974 119.531 79.3974ZM130.5 84.4733H134.324C134.506 84.4733 134.506 84.7427 134.324 84.7427H130.448C130.31 84.7427 130.215 84.6421 130.215 84.5158V79.6165C130.215 79.4992 130.309 79.3986 130.448 79.3986H134.332C134.505 79.3986 134.505 79.6512 134.324 79.6512H130.5V81.9706H134.15C134.332 81.9706 134.332 82.2232 134.15 82.2232H130.5V84.4755V84.4733ZM145.74 79.4824C145.782 79.4232 145.834 79.3986 145.887 79.3986C145.955 79.3986 146.025 79.4489 146.025 79.5495V84.5918C146.025 84.6924 145.947 84.7427 145.878 84.7427C145.8 84.7427 145.732 84.6924 145.732 84.5918V80.0033L143.499 83.4069C143.43 83.5332 143.266 83.5332 143.197 83.4069L140.965 80.02V84.5918C140.965 84.6924 140.896 84.7427 140.818 84.7427C140.749 84.7427 140.671 84.6924 140.671 84.5918V79.5495C140.671 79.4489 140.74 79.3986 140.809 79.3986C140.861 79.3986 140.912 79.4243 140.947 79.4824L143.351 83.1208L145.74 79.4824ZM152.035 83.6171C151.983 83.4494 152.243 83.3734 152.295 83.55C152.563 84.4487 154.024 84.5918 154.535 84.5918C155.391 84.5918 156.715 84.3056 156.715 83.2638C156.715 81.3312 152.147 83.0705 152.147 80.8014C152.147 79.6422 153.695 79.3136 154.44 79.3136C155.27 79.3136 156.464 79.498 156.793 80.3722C156.879 80.5734 156.611 80.6326 156.55 80.4649C156.256 79.6747 155.183 79.5662 154.449 79.5662C153.505 79.5662 152.433 80.0111 152.433 80.8103C152.433 82.7351 157 81.054 157 83.256C157 84.4912 155.582 84.8276 154.535 84.8276C153.652 84.8276 152.312 84.5918 152.035 83.6171Z" fill="white" stroke="white" stroke-width="0.367247"/>
<path d="M1 67.4264L3.9197 63.4357C7.63134 65.9566 10.8036 67.0065 13.4343 67.0065C16.7864 67.0065 18.8038 65.6062 18.8038 64.311C18.8038 59.6207 1.32428 61.4409 1.32428 52.7246C1.32428 48.314 5.68563 45.1289 11.4158 45.1289C14.7679 45.1289 18.624 46.2484 22.768 48.8389L20.0645 52.8296C16.6408 50.7298 13.5413 49.8192 11.0904 49.8192C7.9909 49.8192 6.22497 51.184 6.22497 52.55C6.22497 56.365 23.7045 55.0001 23.7045 64.2414C23.7045 68.2663 19.5957 71.7321 13.2534 71.7321C9.61346 71.7321 5.4683 70.4015 1 67.4264ZM27.4298 70.8922V45.9688H32.2588V60.9856L45.5215 45.9688H51.8649L40.9451 58.3951L51.8649 70.8922H45.4862L37.7011 62.1062L32.2588 68.1967V70.8922H27.4298ZM62.8064 70.8922V64.8017L52.8594 45.9699H58.3734L65.2209 59.3411L72.1401 45.9699H77.6177L67.6343 64.8017V70.8922H62.8053H62.8064Z" fill="white"/>
<path d="M133.537 71.3052V46.3818H138.978L152.169 64.3041V46.3818L156.998 48.0329V71.3041H151.557L138.366 53.4172V71.3041H133.537V71.3052Z" fill="white"/>
<path d="M109.252 71.3052V46.3818H129.47V51.0721H114.081V56.463H125.217V61.0837H114.081V66.6492H129.47V71.3052H109.252Z" fill="white"/>
<path d="M96.7716 61.1584L93.1737 56.4858L105.565 56.5024C105.673 57.2373 105.745 58.0429 105.745 58.8121C105.745 66.1978 99.5821 72.1491 92.0496 72.1491C84.517 72.1491 78.3545 66.1978 78.3545 58.8121C78.3545 51.4264 84.4818 45.5459 92.0496 45.5459C95.545 45.5459 98.6809 46.8058 101.095 48.8713L97.9595 52.442C96.3734 51.1114 94.2831 50.2715 92.0484 50.2715C87.183 50.2715 83.2188 54.1219 83.2188 58.8121C83.2188 63.5024 87.183 67.4577 92.0484 67.4577C96.1207 67.4577 99.5445 64.7976 100.59 61.1573H96.7705L96.7716 61.1584Z" fill="white"/>
<path d="M71.3232 34.5363H88.0245V29.0986H76.9214L71.3232 34.5363Z" fill="white"/>
<path d="M86.4418 0.87793H69.7314V7.16995H79.8412L86.4418 0.87793Z" fill="white"/>
<path d="M62.624 34.5363L69.7264 29.0404V7.16504H62.624V34.5363Z" fill="white"/>
<path d="M88.0244 7.16988V29.0972H95.3771V0.883789L88.0244 7.16988Z" fill="white"/>
<path d="M69.5125 1.37078V6.95547L63.2111 6.94441L69.5125 1.37078ZM69.7401 0.870117L69.3589 1.20721L63.0575 6.78084L62.624 7.16435H63.21L69.5114 7.17651H69.7389V6.95547V0.870117L69.7401 0.870117Z" fill="white"/>
</svg>
