<svg width="16" height="16" viewBox="0 0 16 16" fill="none" xmlns="http://www.w3.org/2000/svg">
<path d="M6.16632 4.19141C5.07415 4.19141 4.18848 5.07708 4.18848 6.16925V9.3338C4.18848 10.426 5.07415 11.3116 6.16632 11.3116H9.33087C10.423 11.3116 11.3087 10.426 11.3087 9.3338V6.16925C11.3087 5.07708 10.423 4.19141 9.33087 4.19141H6.16632ZM10.122 4.98254C10.3404 4.98254 10.5176 5.15976 10.5176 5.37811C10.5176 5.59647 10.3404 5.77368 10.122 5.77368C9.90365 5.77368 9.72644 5.59647 9.72644 5.37811C9.72644 5.15976 9.90365 4.98254 10.122 4.98254ZM7.74859 5.77368C8.84076 5.77368 9.72644 6.65936 9.72644 7.75152C9.72644 8.84369 8.84076 9.72937 7.74859 9.72937C6.65643 9.72937 5.77075 8.84369 5.77075 7.75152C5.77075 6.65936 6.65643 5.77368 7.74859 5.77368ZM7.74859 6.56482C7.43386 6.56482 7.13202 6.68984 6.90947 6.9124C6.68691 7.13495 6.56189 7.43679 6.56189 7.75152C6.56189 8.06626 6.68691 8.3681 6.90947 8.59065C7.13202 8.8132 7.43386 8.93823 7.74859 8.93823C8.06333 8.93823 8.36517 8.8132 8.58772 8.59065C8.81027 8.3681 8.9353 8.06626 8.9353 7.75152C8.9353 7.43679 8.81027 7.13495 8.58772 6.9124C8.36517 6.68984 8.06333 6.56482 7.74859 6.56482Z" fill="#999999"/>
<circle cx="7.85419" cy="7.85419" r="7.5209" stroke="#999999" stroke-width="0.666589"/>
</svg>
