<svg width="16" height="12" viewBox="0 0 16 12" fill="none" xmlns="http://www.w3.org/2000/svg">
<path d="M7.54295 3.08831C6.58733 3.40685 5.33549 5.67097 5.02098 6.58306C4.62823 7.72202 6.37654 8.37546 7.2187 8.52858C8.07913 8.68502 9.12042 8.66206 9.95685 8.40248C12.0401 7.75596 8.67165 5.41623 8.04735 4.96178C6.66386 3.95468 4.70689 3.08831 2.93134 3.08831C2.24341 3.08831 1.43437 3.77645 1.12992 4.38533C0.606213 5.43275 1.80334 6.30738 2.28283 7.05142C4.07093 9.82606 8.05112 11.3173 11.3619 11.1947C12.2832 11.1606 12.997 9.32083 13.3795 8.67269C13.9766 7.66092 15.666 6.19979 14.5324 5.03384C12.8111 3.26327 9.66764 1.92318 7.29076 1.39499C6.34708 1.18528 1.13306 0.437908 1.05787 1.7913C0.948125 3.76667 1.80655 4.94421 3.6519 5.68235" stroke="#B0201E" stroke-linecap="round"/>
</svg>
