<svg width="216" height="70" viewBox="0 0 216 70" fill="none" xmlns="http://www.w3.org/2000/svg">
<path d="M215.837 25.4288C215.803 25.2516 215.7 25.0917 215.546 24.9788C215.392 24.8659 215.198 24.8078 215.001 24.8154C214.805 24.8111 214.614 24.8656 214.456 24.9705C214.298 25.0753 214.183 25.2246 214.127 25.3953C214.061 25.5565 214.061 25.74 214.009 25.9079C213.699 26.9177 213.417 27.9386 213.05 28.9326C212.864 29.4517 212.585 29.9389 212.224 30.3744C208.74 25.8677 204.989 21.7885 201.154 17.5728C201.432 17.378 201.693 17.2079 201.939 17.0243C203.54 15.822 204.5 14.7854 205.218 13.2899C206.101 11.4563 206.473 9.65853 206.027 7.69283C205.597 5.75058 204.41 4.01546 202.684 2.80773C200.958 1.60001 198.811 1.00122 196.638 1.12187C191.77 1.39948 188.145 4.96818 188.029 9.40554C187.982 11.3354 188.595 13.0929 189.608 14.7586C189.766 15.0205 189.913 15.2869 190.152 15.7011C189.348 15.7372 188.542 15.6921 187.749 15.5668C185.921 15.3429 184.283 14.7563 182.61 14.0623C181.857 13.7489 181.238 13.8742 180.775 14.3623C180.372 14.7877 180.32 15.4034 180.701 15.9989C180.924 16.3541 181.193 16.6834 181.503 16.9795C184.666 19.9213 188.503 21.2004 193.013 20.8169C193.583 20.7676 194.149 20.696 194.734 20.631C196.857 22.8878 199.066 25.0572 200.884 27.5154C201.393 28.2259 201.834 28.9749 202.202 29.7543C202.683 30.7544 202.779 31.8732 202.473 32.9289C201.703 35.8394 198.161 37.5185 195.239 36.3096C195.239 36.3096 195.381 35.8237 195.421 35.6267C195.942 32.9715 195.755 30.1528 194.683 27.8781C193.416 25.2094 190.87 23.4228 187.808 23.3243C184.428 23.2146 182.035 24.6676 180.532 27.3542C179.577 29.0602 179.343 30.9185 179.437 32.8125C179.557 35.2372 180.475 37.4312 181.779 39.5133C181.948 39.7842 182.108 40.0596 182.293 40.3708C180.755 41.4342 179.139 41.938 177.287 41.6111C175.939 41.3738 175.002 40.5857 174.239 39.6073C172.975 37.9864 172.431 36.1439 172.272 34.1849C171.944 30.0744 172.636 26.0759 173.939 22.1624C174.552 20.3198 175.334 18.5243 176.077 16.7198C176.82 14.9153 176.569 13.2451 175.167 11.81C173.765 10.375 171.984 9.86674 169.927 10.3794C169.187 10.5402 168.501 10.8604 167.925 11.3131C167.349 11.7659 166.901 12.3378 166.619 12.9809C165.952 14.4677 165.377 15.9872 164.897 17.5325C163.758 21.3709 163.022 25.299 162.698 29.264C162.356 32.9759 162.336 36.6767 163.212 40.3439C163.281 40.6305 163.377 40.9954 163.377 40.9954C162.92 41.6976 162.379 42.3523 161.766 42.9477C160.61 43.9865 159.119 44.1141 157.683 43.4089C156.724 42.9164 155.958 42.1644 155.491 41.2574C154.527 39.5335 154.104 37.6752 153.981 35.77C153.786 32.7677 154.246 29.8214 155.019 26.9109C155.776 24.0067 156.821 21.1712 158.143 18.4392C158.478 17.7555 158.627 17.0084 158.578 16.2611C158.529 15.5138 158.283 14.7882 157.861 14.1457C157.438 13.5032 156.852 12.9626 156.152 12.5697C155.452 12.1768 154.658 11.9431 153.838 11.8884C151.843 11.7406 150.264 12.4705 149.132 13.9548C147.748 15.8263 146.695 17.8843 146.013 20.0534C143.631 27.1026 143.309 34.5953 145.079 41.7924C145.138 42.0365 145.246 42.4305 145.246 42.4305C144.717 43.2365 143.831 43.9328 142.754 44.0514C142.288 44.1186 141.81 44.0537 141.386 43.8655C140.962 43.6773 140.612 43.3748 140.383 42.9992C139.977 42.4394 139.691 41.8151 139.539 41.1589C139.334 40.0132 139.237 38.8538 139.249 37.6931C139.313 33.4394 139.965 29.2505 140.703 25.0639C141.867 18.4594 143.03 11.8541 144.193 5.24803C144.324 4.52544 144.255 3.78458 143.994 3.09204C143.638 2.12556 142.935 1.29647 141.997 0.738696C141.06 0.180928 139.944 -0.0729342 138.828 0.0181253C137.745 0.102623 136.723 0.511384 135.922 1.18053C135.121 1.84968 134.586 2.74152 134.401 3.71667C133.729 7.34581 133.112 10.9839 132.467 14.6175C132.307 15.5287 132.101 16.5205 131.936 17.425C131.936 17.425 131.282 16.9034 131.013 16.7534C129.143 15.6153 126.88 15.1376 124.65 15.4101C122.126 15.6989 120.04 16.7892 118.178 18.2915C116.308 19.8199 114.76 21.6461 113.61 23.6803C110.216 29.5438 109.055 35.7901 109.847 42.3589C109.916 42.9275 109.992 43.4962 110.071 44.1029C108.999 44.4227 107.847 44.4391 106.765 44.1499C106.794 43.9753 106.812 43.8343 106.839 43.7022C107.493 40.6169 107.649 37.4613 107.304 34.3349C106.949 31.4244 106.184 28.6416 104.731 26.0288C103.629 24.0497 102.212 22.2878 100.205 20.9825C97.3889 19.1527 94.3412 18.7527 91.0615 19.7825C89.4245 20.3246 87.9202 21.1537 86.6339 22.2228C84.5629 23.901 82.8703 25.9297 81.6504 28.196C78.023 34.811 77.0448 41.7439 78.7158 48.9948C78.8806 49.7089 79.0848 50.3045 79.0848 50.3045C78.6892 50.7121 78.2241 51.0591 77.7073 51.3321C77.3537 51.5323 76.9846 51.7089 76.6029 51.8605C75.1024 52.3642 73.8749 51.9276 73.1222 50.6336C72.6413 49.7695 72.3966 48.8126 72.4089 47.844C72.3942 45.4442 72.6023 43.0476 73.0312 40.6797C74.057 34.6752 75.1344 28.6796 76.2093 22.684C76.5531 20.9823 76.4977 19.2336 76.0469 17.5526C74.5219 12.1794 68.766 8.5503 62.737 9.14583C57.4558 9.66748 53.1905 13.0996 51.9139 17.8616C51.8623 18.0519 51.786 18.2377 51.7196 18.4258C51.7196 18.4258 51.9385 15.9474 51.9115 15.166C51.6655 7.91671 44.6182 3.50622 38.1588 4.33683C33.0104 5.00848 28.7599 8.48538 27.7858 13.1153C27.2939 15.4101 26.9396 17.725 26.5338 20.031C25.5991 25.34 24.6668 30.6476 23.737 35.9536C23.491 37.3103 23.2942 38.6715 22.9991 40.0171L22.9769 40.1021C22.8948 40.4187 22.7406 40.7161 22.5243 40.9751C22.308 41.234 22.0344 41.4488 21.7212 41.6056C21.4081 41.7624 21.0622 41.8576 20.7061 41.8852C20.35 41.9127 19.9915 41.872 19.6537 41.7656C18.1915 41.3278 16.6621 41.1049 15.1228 41.1051C6.77181 41.1051 0 47.5753 0 55.5545C0 61.6173 3.91107 66.8046 9.45298 68.9494C11.1908 69.6577 13.0762 70.0159 14.9801 69.9995H15.1228C16.9774 70 18.8147 69.6754 20.5343 69.0435C21.2045 68.8054 21.8562 68.5264 22.485 68.2084C27.7735 65.5218 30.5875 61.268 31.6969 55.9821C32.2676 53.2575 32.666 50.5037 33.1482 47.7634C34.0878 42.3902 35.0307 37.0252 35.9769 31.6685C36.2229 30.3408 36.3975 29.0043 36.7149 27.6968C37.133 26.0333 38.8647 25.0617 40.7563 25.3214C41.6042 25.4528 42.369 25.8642 42.9045 26.4767C43.44 27.0893 43.7086 27.8601 43.6589 28.6416C43.6338 29.017 43.5845 29.3908 43.5113 29.761C43.1571 31.8095 42.793 33.858 42.4339 35.9043C41.6238 40.4924 40.8153 45.0791 40.0085 49.6642C39.3813 53.2463 38.727 56.815 38.1588 60.3994C37.6496 63.6121 40.4857 66.5136 44.05 66.5203C47.0607 66.5203 49.5427 64.5412 50.0273 61.7561C50.7554 57.5769 51.4867 53.3941 52.2214 49.2075C53.1004 44.2178 53.9793 39.2275 54.8583 34.2364C55.365 31.3528 55.8594 28.4669 56.3932 25.5856C56.7843 23.4721 59.2392 22.1848 61.3964 23.1967C62.0919 23.5358 62.653 24.0649 63.0008 24.7095C63.3485 25.3542 63.4653 26.0818 63.3347 26.79C63.1355 27.9498 62.919 29.1072 62.7173 30.267C61.4604 37.4514 60.1887 44.6313 58.9563 51.8179C58.3733 55.203 59.463 58.1337 62.1368 60.5292C66.6087 64.53 73.2403 63.9322 77.2941 60.977C78.9184 59.7864 80.3019 58.3469 81.3822 56.7232C81.5397 56.4881 81.7118 56.262 81.916 55.9821L82.6539 56.8083C83.545 57.8497 84.6267 58.7435 85.8517 59.4501C87.0188 60.1317 88.3357 60.5727 89.7099 60.7421C91.0841 60.9115 92.4823 60.8052 93.8066 60.4307C95.9221 59.8732 97.6956 58.7829 99.2772 57.4195C101.337 55.6044 103.005 53.4547 104.197 51.0813C104.443 50.6045 104.603 50.2104 104.603 50.2104C107.171 50.2284 108.956 49.8993 110.627 49.1627L111.566 48.7642C111.751 49.1179 111.913 49.4358 112.073 49.7358C113.126 51.7687 114.457 53.6202 116.424 55.0217C117.822 56.0213 119.493 56.6552 121.257 56.8552C123.021 57.0552 124.811 56.8137 126.436 56.1568C128.65 55.2612 130.371 53.8441 131.904 52.1829C132.123 51.9433 132.347 51.706 132.602 51.4284C132.927 51.8761 133.183 52.2388 133.466 52.5881C134.477 53.8329 135.776 54.6993 137.47 54.9881C140.375 55.4829 142.862 54.6971 144.985 52.8836C146.184 51.8174 147.138 50.545 147.792 49.1403C147.922 48.8761 148.055 48.6142 148.225 48.2783C148.49 48.556 148.699 48.7731 148.901 48.9925C149.756 49.9471 150.783 50.7618 151.939 51.4015C154.844 52.9575 157.869 53.1926 160.991 52.0105C163.271 51.1463 164.954 49.6642 166.157 47.7186C166.326 47.4455 166.503 47.1746 166.708 46.8544C167.222 47.2485 167.662 47.6313 168.149 47.9537C171.634 50.253 175.528 50.8194 179.69 50.15C182.777 49.6508 185.663 48.4146 188.054 46.5679C188.76 46.0306 189.099 45.7686 189.099 45.7686C189.941 46.1981 190.812 46.5788 191.706 46.9082C195.364 48.0119 197.77 48.0276 200.857 47.6694C205.038 47.1791 207.444 45.5044 209.943 43.026C211.457 41.5704 212.685 39.8893 213.574 38.0558C215.65 33.905 215.847 30.8916 215.999 27.0856C216.007 26.5297 215.953 25.9747 215.837 25.4288ZM199.477 10.2048C199.177 11.5033 198.205 12.372 197.152 13.3123C196.242 12.6348 195.545 11.7505 195.13 10.7488C194.998 10.3885 194.942 10.0087 194.966 9.62942C195.015 8.21448 196.045 7.39059 197.529 7.56074C198.855 7.69283 199.77 8.93538 199.477 10.1936V10.2048ZM91.1624 42.7641C91.9003 44.5552 93.2458 45.8985 94.8521 47.0604C95.2505 47.347 95.6638 47.6201 96.1631 47.9559C95.2924 49.2992 94.3749 50.5597 92.7686 51.2045C91.551 51.6926 90.3285 51.5828 89.3815 50.6963C88.7683 50.1026 88.2537 49.4305 87.854 48.7015C87.1578 47.4679 86.87 46.1022 86.7274 44.7343C86.3264 40.6171 86.8848 36.623 88.7911 32.8349C89.3815 31.6595 90.1047 30.549 91.1648 29.6669C91.6003 29.2835 92.0981 28.9633 92.6407 28.7177C93.1764 28.4712 93.782 28.3792 94.3766 28.454C94.9712 28.5288 95.5266 28.7668 95.9688 29.1363C96.2659 29.3608 96.5311 29.618 96.7584 29.902C98.1703 31.7401 98.586 33.8446 98.7803 36.1976C97.8066 35.6584 96.6854 35.3806 95.5457 35.3961C94.5588 35.3942 93.5957 35.6722 92.7903 36.1913C91.9849 36.7105 91.3772 37.4452 91.0517 38.2932C90.4878 39.7458 90.5271 41.336 91.1624 42.7641ZM127.644 42.6522C127.229 43.6002 126.713 44.509 126.104 45.3656C125.697 45.9241 125.185 46.413 124.591 46.8097C123.391 47.6268 122.048 47.5306 121.044 46.5164C120.481 45.9213 120.017 45.2536 119.669 44.535C118.948 43.1156 118.663 41.5753 118.537 40.0305C118.242 36.4103 118.604 32.8438 120.045 29.4319C120.535 28.3548 121.137 27.3232 121.843 26.3512C122.228 25.8482 122.72 25.421 123.29 25.0953C124.394 24.4236 125.592 24.4997 126.537 25.3617C127.07 25.8636 127.514 26.4384 127.853 27.0654C128.726 28.655 129.038 30.3901 129.188 32.1431C129.245 32.8147 129.188 33.4864 129.188 34.158C129.293 37.0544 128.768 39.9411 127.644 42.6522Z" fill="black"/>
</svg>
