<svg width="136" height="65" viewBox="0 0 136 65" fill="none" xmlns="http://www.w3.org/2000/svg">
<path d="M117.655 8.95768V9.01379H117.711H123.335H123.391V8.95768V7.39146V7.33535H123.335H119.717V5.80732H123.047H123.104V5.75121V4.18109V4.12498H123.047H119.717V2.60085H123.335H123.391V2.54474V0.978516V0.922406H123.335H117.711H117.655V0.978516V8.95768Z" fill="#D9D9D9" stroke="#D9D9D9" stroke-width="0.112219"/>
<path d="M114.448 3.60045L114.459 3.64179H114.502H116.475H116.538L116.531 3.57906C116.483 3.17431 116.359 2.80195 116.161 2.46257C115.963 2.12376 115.705 1.83136 115.387 1.58553C115.072 1.33971 114.709 1.14981 114.299 1.01551C113.891 0.881003 113.45 0.814008 112.978 0.814008C112.433 0.814008 111.923 0.906031 111.449 1.09055L111.449 1.09059C110.977 1.27522 110.561 1.54702 110.201 1.90569L110.201 1.90584C109.843 2.2651 109.565 2.70304 109.365 3.21869L109.417 3.23893L109.365 3.2186C109.165 3.73275 109.066 4.32037 109.066 4.98048C109.066 5.82927 109.23 6.56596 109.561 7.1886L109.561 7.18869C109.891 7.80814 110.353 8.2862 110.945 8.62149C111.538 8.9568 112.224 9.12357 113.001 9.12357C113.702 9.12357 114.324 8.98569 114.866 8.70832C115.411 8.43091 115.839 8.03279 116.149 7.51464C116.462 6.99519 116.618 6.37303 116.618 5.6506V4.59477V4.53866H116.562H113.084H113.028V4.59477V6.00125V6.05736H113.084H114.624C114.611 6.29523 114.55 6.50274 114.442 6.68132C114.32 6.88378 114.14 7.0416 113.899 7.15429C113.662 7.26421 113.368 7.32045 113.017 7.32045C112.622 7.32045 112.289 7.22787 112.016 7.04551C111.743 6.86293 111.533 6.59703 111.387 6.2447C111.241 5.89222 111.167 5.46358 111.167 4.9571C111.167 4.45343 111.244 4.02904 111.395 3.6821L111.395 3.68197C111.546 3.33205 111.759 3.06857 112.032 2.88843C112.308 2.70826 112.635 2.61712 113.017 2.61712C113.207 2.61712 113.38 2.63996 113.537 2.68507L113.537 2.68508L113.538 2.6853C113.695 2.72791 113.834 2.79155 113.954 2.87579C114.074 2.96021 114.176 3.06313 114.259 3.18479L114.259 3.18524C114.341 3.30409 114.405 3.44226 114.448 3.60045Z" fill="#D9D9D9" stroke="#D9D9D9" stroke-width="0.112219"/>
<path d="M102.776 9.01379H102.817L102.829 8.97462L103.348 7.33847H106.051L106.57 8.97465L106.583 9.01379H106.624H108.719H108.797L108.772 8.93957L106.051 0.960403L106.038 0.922406H105.997H103.402H103.362L103.349 0.960403L100.628 8.93957L100.602 9.01379H100.681H102.776ZM105.55 5.76133H103.847L104.698 3.07517L105.55 5.76133Z" fill="#D9D9D9" stroke="#D9D9D9" stroke-width="0.112219"/>
<path d="M94.5523 8.95768V9.01379H94.6084H99.9134H99.9695V8.95768V7.39146V7.33535H99.9134H96.614V0.978516V0.922406H96.5579H94.6084H94.5523V0.978516V8.95768Z" fill="#D9D9D9" stroke="#D9D9D9" stroke-width="0.112219"/>
<path d="M88.2388 8.95768V9.01379H88.2949H93.5999H93.656V8.95768V7.39146V7.33535H93.5999H90.3005V0.978516V0.922406H90.2444H88.2949H88.2388V0.978516V8.95768Z" fill="#D9D9D9" stroke="#D9D9D9" stroke-width="0.112219"/>
<path d="M87.1257 0.978516V0.922406H87.0696H85.1201H85.064V0.978516V8.95768V9.01379H85.1201H87.0696H87.1257V8.95768V0.978516Z" fill="#D9D9D9" stroke="#D9D9D9" stroke-width="0.112219"/>
<path d="M78.4523 0.961968L78.44 0.922406H78.3986H76.2168H76.1384L76.1637 0.996628L78.8851 8.97579L78.898 9.01379H78.9382H81.5336H81.5737L81.5867 8.97579L84.3081 0.996628L84.3334 0.922406H84.255H82.0731H82.0317L82.0195 0.961968L80.2359 6.74084L78.4523 0.961968Z" fill="#D9D9D9" stroke="#D9D9D9" stroke-width="0.112219"/>
<path d="M66.357 2.54474V2.60085H66.4131H68.8066V8.95768V9.01379H68.8627H70.7847H70.8408V8.95768V2.60085H73.2304H73.2865V2.54474V0.978516V0.922406H73.2304H66.4131H66.357V0.978516V2.54474Z" fill="#D9D9D9" stroke="#D9D9D9" stroke-width="0.112219"/>
<path d="M59.2776 3.34805C59.275 3.96696 59.4798 4.46364 59.8952 4.83157L59.8953 4.8317C60.306 5.19286 60.8655 5.45196 61.57 5.6118C61.5701 5.6118 61.5701 5.61181 61.5701 5.61181L62.4127 5.80657L62.4128 5.80658C62.705 5.87369 62.9431 5.94683 63.128 6.0256L63.1289 6.02595C63.3156 6.10188 63.4484 6.19095 63.5324 6.29064L63.5324 6.29064L63.5328 6.29115C63.6153 6.38675 63.6584 6.50212 63.661 6.64024C63.6584 6.78857 63.6114 6.91908 63.5197 7.03372C63.4276 7.14879 63.2938 7.24101 63.1145 7.30846L63.1142 7.30856C62.9386 7.37558 62.7226 7.41006 62.4647 7.41006C62.1843 7.41006 61.9397 7.3668 61.7298 7.28176C61.5232 7.19702 61.3627 7.07335 61.246 6.91132C61.1301 6.75021 61.063 6.54671 61.0478 6.29782L61.0445 6.24514H60.9918H59.125H59.0682L59.0689 6.30196C59.0769 6.93347 59.2219 7.46058 59.5079 7.87962C59.7931 8.29749 60.1923 8.60806 60.7032 8.81179C61.2127 9.01499 61.8082 9.11578 62.4883 9.11578C63.1656 9.11578 63.7468 9.01898 64.2304 8.82337C64.7166 8.62782 65.0922 8.34507 65.354 7.97384C65.6162 7.60214 65.7476 7.1581 65.7503 6.64439L65.7503 6.64364C65.7476 6.31793 65.6913 6.02227 65.5805 5.75751C65.4697 5.49289 65.3063 5.25917 65.0908 5.05659C64.8782 4.85438 64.6157 4.68109 64.3041 4.53616C63.995 4.39121 63.6391 4.27574 63.2369 4.18932C63.2368 4.1893 63.2367 4.18928 63.2366 4.18926L62.544 4.03353L62.544 4.03353L62.5433 4.03339C62.3614 3.99483 62.1984 3.95 62.0541 3.89901C61.9105 3.84828 61.7889 3.79045 61.6884 3.72594C61.592 3.65982 61.5196 3.58519 61.4693 3.50255C61.4231 3.42225 61.4014 3.3281 61.4062 3.21802L61.4063 3.21657C61.4087 3.08242 61.4484 2.96541 61.525 2.86357L61.5253 2.86308C61.6015 2.75946 61.7177 2.67546 61.8784 2.61335C62.038 2.55169 62.2406 2.51972 62.4883 2.51972C62.8621 2.51972 63.1407 2.59888 63.3319 2.74928L63.3319 2.74928L63.3325 2.74976C63.5262 2.89767 63.6363 3.10472 63.6612 3.37653L63.6659 3.42751H63.7171H65.5839H65.6406L65.64 3.3708C65.6346 2.86475 65.5019 2.41745 65.2405 2.03089C64.9793 1.64471 64.6124 1.34615 64.142 1.1346C63.6737 0.920214 63.1233 0.814008 62.4923 0.814008C61.8742 0.814008 61.3215 0.919001 60.8355 1.13035C60.3497 1.34158 59.9672 1.63706 59.6901 2.0176C59.4121 2.39937 59.275 2.84363 59.2776 3.34805ZM59.2776 3.34805C59.2776 3.34814 59.2776 3.34823 59.2776 3.34832L59.3337 3.34802L59.2776 3.34778C59.2776 3.34787 59.2776 3.34796 59.2776 3.34805Z" fill="#D9D9D9" stroke="#D9D9D9" stroke-width="0.112219"/>
<path d="M52.4546 8.95768V9.01379H52.5107H58.1347H58.1908V8.95768V7.39146V7.33535H58.1347H54.5163V5.80732H57.8472H57.9033V5.75121V4.18109V4.12498H57.8472H54.5163V2.60085H58.1347H58.1908V2.54474V0.978516V0.922406H58.1347H52.5107H52.4546V0.978516V8.95768Z" fill="#D9D9D9" stroke="#D9D9D9" stroke-width="0.112219"/>
<path d="M42.5864 8.97351L42.5982 9.01379H42.6402H44.5149H44.5566L44.5686 8.97382L45.9996 4.20892L47.4306 8.97382L47.4426 9.01379H47.4844H49.363H49.405L49.4168 8.97349L51.7601 0.994326L51.7812 0.922406H51.7063H49.556H49.5114L49.5013 0.965784L48.3002 6.12098L46.9321 0.964128L46.921 0.922406H46.8779H45.1214H45.0782L45.0672 0.964098L43.6991 6.10936L42.5019 0.965796L42.4918 0.922406H42.4472H40.293H40.218L40.2391 0.99435L42.5864 8.97351Z" fill="#D9D9D9" stroke="#D9D9D9" stroke-width="0.112219"/>
<path d="M32.9861 4.65095H32.9299M32.9861 4.65095H32.9299M32.9861 4.65095V2.58916H33.8909C34.1774 2.58916 34.415 2.63006 34.6058 2.70952L34.6058 2.70952L34.6064 2.70976C34.7963 2.78638 34.9373 2.90127 35.0327 3.05372L35.0329 3.05406C35.1282 3.20381 35.1778 3.39647 35.1778 3.63564C35.1778 3.87477 35.1282 4.06586 35.0333 4.2128C34.9382 4.35739 34.7973 4.46743 34.6071 4.54174C34.4186 4.61381 34.1805 4.65095 33.8909 4.65095H32.9861ZM32.9299 4.65095V2.58916V4.65095ZM30.9244 8.95768V9.01379H30.9805H32.9299H32.9861V8.95768V6.28264H33.895L35.3539 8.98434L35.3698 9.01379H35.4032H37.5299H37.6249L37.5791 8.93061L35.936 5.94752C36.363 5.74215 36.6967 5.45174 36.9353 5.0761L36.9354 5.07596C37.1864 4.67827 37.3104 4.19725 37.3104 3.63564C37.3104 3.08186 37.189 2.60009 36.944 2.19255C36.6992 1.78271 36.3508 1.46894 35.9004 1.25145C35.4527 1.03135 34.9227 0.922406 34.3123 0.922406H30.9805H30.9244V0.978516V8.95768Z" fill="#D9D9D9" stroke="#D9D9D9" stroke-width="0.112219"/>
<path d="M22.6025 7.22457L22.6027 7.22482C22.9488 7.84123 23.417 8.3126 24.0069 8.63739C24.5962 8.96186 25.2581 9.12357 25.9913 9.12357C26.7218 9.12357 27.3823 8.96319 27.9715 8.64143C28.5642 8.31921 29.0338 7.84774 29.38 7.22863C29.7271 6.60799 29.8991 5.85388 29.8991 4.96879C29.8991 4.08369 29.7271 3.32958 29.38 2.70895C29.0338 2.08986 28.5643 1.61839 27.9716 1.29617C27.3824 0.974394 26.7218 0.814008 25.9913 0.814008C25.2582 0.814008 24.5963 0.974386 24.0071 1.29619C23.417 1.61844 22.9488 2.08991 22.6026 2.70895L22.6025 2.70911C22.2582 3.32971 22.0874 4.08376 22.0874 4.96879C22.0874 5.85125 22.2582 6.60399 22.6025 7.22457ZM26.9565 2.88427L26.9567 2.88441C27.2242 3.06167 27.4303 3.32345 27.5738 3.67321L27.574 3.67353C27.72 4.02324 27.7941 4.45437 27.7941 4.96879C27.7941 5.48321 27.72 5.91434 27.5739 6.26404L27.5738 6.26437C27.4303 6.61413 27.2242 6.87591 26.9567 7.05317L26.9565 7.05331C26.6916 7.23054 26.3707 7.32045 25.9913 7.32045C25.6146 7.32045 25.2937 7.23059 25.0259 7.05317C24.7583 6.87588 24.5509 6.61403 24.4048 6.26421C24.2614 5.91443 24.1885 5.48323 24.1885 4.96879C24.1885 4.45435 24.2614 4.02314 24.4048 3.67337C24.5509 3.32355 24.7583 3.0617 25.0259 2.88441C25.2937 2.70699 25.6146 2.61712 25.9913 2.61712C26.3707 2.61712 26.6916 2.70703 26.9565 2.88427Z" fill="#D9D9D9" stroke="#D9D9D9" stroke-width="0.112219"/>
<path d="M13.8525 7.22457L13.8527 7.22482C14.1988 7.84123 14.667 8.3126 15.2569 8.63739C15.8462 8.96186 16.5081 9.12357 17.2413 9.12357C17.9718 9.12357 18.6323 8.96319 19.2215 8.64143C19.8142 8.31921 20.2838 7.84774 20.63 7.22863C20.9771 6.60799 21.1491 5.85388 21.1491 4.96879C21.1491 4.08369 20.9771 3.32958 20.63 2.70895C20.2838 2.08986 19.8143 1.61839 19.2216 1.29617C18.6324 0.974394 17.9718 0.814008 17.2413 0.814008C16.5082 0.814008 15.8463 0.974386 15.2571 1.29619C14.667 1.61844 14.1988 2.08991 13.8526 2.70895L13.8525 2.70911C13.5082 3.32971 13.3374 4.08376 13.3374 4.96879C13.3374 5.85125 13.5082 6.60399 13.8525 7.22457ZM18.2065 2.88427L18.2067 2.88441C18.4742 3.06167 18.6803 3.32345 18.8238 3.67321L18.824 3.67353C18.97 4.02324 19.0441 4.45437 19.0441 4.96879C19.0441 5.48321 18.97 5.91434 18.824 6.26404L18.8238 6.26437C18.6803 6.61412 18.4742 6.87591 18.2067 7.05317L18.2065 7.05331C17.9416 7.23054 17.6207 7.32045 17.2413 7.32045C16.8646 7.32045 16.5437 7.23059 16.2759 7.05317C16.0083 6.87588 15.8009 6.61403 15.6548 6.26421C15.5114 5.91443 15.4385 5.48323 15.4385 4.96879C15.4385 4.45435 15.5114 4.02314 15.6548 3.67337C15.8009 3.32355 16.0083 3.0617 16.2759 2.88441C16.5437 2.70699 16.8646 2.61712 17.2413 2.61712C17.6207 2.61712 17.9416 2.70703 18.2065 2.88427Z" fill="#D9D9D9" stroke="#D9D9D9" stroke-width="0.112219"/>
<path d="M7.42338 8.95768V9.01379H7.47949H12.7844H12.8406V8.95768V7.39146V7.33535H12.7844H9.48508V0.978516V0.922406H9.42897H7.47949H7.42338V0.978516V8.95768Z" fill="#D9D9D9" stroke="#D9D9D9" stroke-width="0.112219"/>
<path d="M4.99289 1.23176L5.01439 1.17993C4.59859 1.00744 4.08533 0.922406 3.47663 0.922406H0.113281H0.057172V0.978516V8.95768V9.01379H0.113281H3.73262C4.33441 9.01379 4.84962 8.91678 5.27629 8.72034L5.27655 8.72021C5.702 8.52168 6.02964 8.25039 6.25671 7.90542L6.25681 7.90525C6.4837 7.55789 6.59677 7.16398 6.59677 6.72523C6.59677 6.3325 6.51087 5.98973 6.3368 5.6991C6.16396 5.40793 5.93388 5.18017 5.64695 5.01679C5.3961 4.87265 5.12514 4.78604 4.83461 4.75689C5.09477 4.69068 5.3277 4.58701 5.53281 4.44545C5.7657 4.28471 5.94895 4.08203 6.08189 3.83779L6.08202 3.83756C6.21558 3.58949 6.2817 3.30873 6.2817 2.99668C6.2817 2.58649 6.17517 2.22335 5.9609 1.90935C5.74874 1.59459 5.43186 1.35201 5.01427 1.17989L4.99289 1.23176ZM4.99289 1.23176C5.40248 1.40059 5.70967 1.63695 5.91446 1.94085L6.2886 5.72783C6.45664 6.00835 6.54066 6.34081 6.54066 6.72523C6.54066 7.15379 6.43038 7.53691 6.20984 7.87457C5.98929 8.20963 5.67028 8.47456 5.25282 8.66937C4.83536 8.86157 4.32862 8.95768 3.73262 8.95768H0.169391H0.113281V8.90157V1.03462V0.978516H0.169391H3.47663C4.08051 0.978516 4.58593 1.06293 4.99289 1.23176ZM4.16667 7.12132L4.16639 7.12154C3.98145 7.26838 3.68561 7.34703 3.26789 7.34703H2.11887V5.55797H3.30334C3.5467 5.55797 3.75219 5.59853 3.92161 5.6774L3.92222 5.67768C4.09185 5.75418 4.22092 5.86297 4.31166 6.00369L4.3119 6.00407C4.40214 6.14159 4.44843 6.30712 4.44843 6.50315C4.44843 6.77104 4.35376 6.9747 4.16667 7.12132ZM4.04927 3.81733L4.04927 3.81733L4.04884 3.81794C3.96367 3.94072 3.84389 4.03568 3.68709 4.10216C3.52976 4.16886 3.34837 4.2029 3.14187 4.2029H2.11887V2.56578H3.17337C3.49038 2.56578 3.7353 2.64034 3.91419 2.78337C4.09122 2.92491 4.18062 3.11847 4.18062 3.37071C4.18062 3.54784 4.13603 3.69575 4.04927 3.81733Z" fill="#D9D9D9" stroke="#D9D9D9" stroke-width="0.112219"/>
<path d="M117.989 23.9044L117.989 23.9048C118.427 24.6855 119.02 25.2826 119.767 25.694C120.514 26.105 121.352 26.3098 122.281 26.3098C123.206 26.3098 124.043 26.1067 124.789 25.6991C125.54 25.291 126.135 24.6938 126.573 23.9096C127.013 23.1234 127.231 22.1682 127.231 21.0471C127.231 19.926 127.013 18.9708 126.573 18.1847C126.135 17.4005 125.54 16.8033 124.789 16.3951C124.043 15.9876 123.206 15.7844 122.281 15.7844C121.352 15.7844 120.514 15.9875 119.768 16.3952C119.02 16.8033 118.427 17.4005 117.989 18.1847L117.989 18.1849C117.552 18.971 117.336 19.9261 117.336 21.0471C117.336 22.1649 117.552 23.1184 117.989 23.9044ZM123.504 18.4067L123.504 18.4069C123.843 18.6314 124.104 18.963 124.286 19.4061L124.286 19.4065C124.471 19.8494 124.565 20.3955 124.565 21.0471C124.565 21.6987 124.471 22.2448 124.286 22.6878L124.286 22.6882C124.104 23.1312 123.843 23.4628 123.504 23.6873L123.504 23.6875C123.168 23.912 122.762 24.0259 122.281 24.0259C121.804 24.0259 121.397 23.9121 121.058 23.6873C120.719 23.4628 120.457 23.1311 120.271 22.688C120.09 22.2449 119.998 21.6987 119.998 21.0471C119.998 20.3955 120.09 19.8493 120.271 19.4062C120.457 18.9631 120.719 18.6315 121.058 18.4069C121.397 18.1822 121.804 18.0683 122.281 18.0683C122.762 18.0683 123.168 18.1822 123.504 18.4067Z" fill="white" stroke="white" stroke-width="0.142143"/>
<path d="M108.072 17.977V18.0481H108.143H111.174V26.1001V26.1712H111.245H113.68H113.751V26.1001V18.0481H116.778H116.849V17.977V15.9932V15.9221H116.778H108.143H108.072V15.9932V17.977Z" fill="white" stroke="white" stroke-width="0.142143"/>
<path d="M106.997 15.9932V15.9221H106.926H104.461H104.39V15.9932V21.7113L100.414 15.9528L100.393 15.9221H100.356H98.2305H98.1594V15.9932V26.1001V26.1712H98.2305H100.7H100.771V26.1001V20.4001L104.772 26.1407L104.793 26.1712H104.83H106.926H106.997V26.1001V15.9932Z" fill="white" stroke="white" stroke-width="0.142143"/>
<path d="M87.6165 23.9044L87.6167 23.9048C88.0552 24.6855 88.6482 25.2826 89.3954 25.694C90.1418 26.105 90.9803 26.3098 91.909 26.3098C92.8343 26.3098 93.6709 26.1067 94.4173 25.6991C95.168 25.291 95.7628 24.6938 96.2013 23.9096C96.6409 23.1234 96.8589 22.1682 96.8589 21.0471C96.8589 19.926 96.6409 18.9708 96.2013 18.1847C95.7628 17.4005 95.1681 16.8033 94.4173 16.3951C93.671 15.9876 92.8343 15.7844 91.909 15.7844C90.9804 15.7844 90.142 15.9875 89.3956 16.3952C88.6482 16.8033 88.0551 17.4005 87.6166 18.1847L87.6165 18.1849C87.1803 18.971 86.9641 19.9261 86.9641 21.0471C86.9641 22.1649 87.1804 23.1184 87.6165 23.9044ZM93.1316 18.4067L93.1318 18.4069C93.4707 18.6314 93.7318 18.963 93.9135 19.4061L93.9137 19.4065C94.0986 19.8494 94.1925 20.3955 94.1925 21.0471C94.1925 21.6987 94.0986 22.2448 93.9137 22.6878L93.9135 22.6882C93.7318 23.1312 93.4707 23.4628 93.1318 23.6873L93.1316 23.6875C92.796 23.912 92.3896 24.0259 91.909 24.0259C91.4318 24.0259 91.0253 23.9121 90.6861 23.6873C90.3472 23.4628 90.0845 23.1311 89.8994 22.688C89.7177 22.2449 89.6255 21.6987 89.6255 21.0471C89.6255 20.3955 89.7177 19.8493 89.8994 19.4062C90.0845 18.9631 90.3472 18.6315 90.6861 18.4069C91.0253 18.1822 91.4318 18.0683 91.909 18.0683C92.3896 18.0683 92.796 18.1822 93.1316 18.4067Z" fill="white" stroke="white" stroke-width="0.142143"/>
<path d="M77.7707 26.1001V26.1712H77.8418H80.3111H80.3822V26.1001V22.7117H81.5335L83.3814 26.1339L83.4016 26.1712H83.444H86.1378H86.2581L86.2 26.0658L84.1189 22.2872C84.6597 22.0271 85.0824 21.6592 85.3846 21.1834L85.3848 21.1833C85.7026 20.6795 85.8597 20.0702 85.8597 19.3589C85.8597 18.6574 85.7059 18.0471 85.3956 17.5309C85.0855 17.0118 84.6441 16.6144 84.0737 16.3389C83.5066 16.0601 82.8353 15.9221 82.0621 15.9221H77.8418H77.7707V15.9932V26.1001ZM81.5283 20.6449H80.3822V18.0333H81.5283C81.8912 18.0333 82.1922 18.0851 82.4339 18.1858L82.4339 18.1858L82.4346 18.1861C82.6751 18.2831 82.8538 18.4287 82.9746 18.6218L82.9749 18.6222C83.0955 18.8119 83.1584 19.0559 83.1584 19.3589C83.1584 19.6617 83.0956 19.9038 82.9754 20.0899C82.8549 20.2731 82.6765 20.4125 82.4356 20.5066C82.1968 20.5979 81.8952 20.6449 81.5283 20.6449Z" fill="white" stroke="white" stroke-width="0.142143"/>
<path d="M67.2308 23.9044L67.231 23.9048C67.6694 24.6855 68.2624 25.2826 69.0096 25.694C69.7561 26.105 70.5945 26.3098 71.5232 26.3098C72.4485 26.3098 73.2852 26.1067 74.0315 25.6991C74.7823 25.291 75.3771 24.6938 75.8156 23.9096C76.2552 23.1234 76.4731 22.1682 76.4731 21.0471C76.4731 19.926 76.2552 18.9708 75.8156 18.1847C75.3771 17.4005 74.7823 16.8033 74.0316 16.3951C73.2852 15.9876 72.4486 15.7844 71.5232 15.7844C70.5946 15.7844 69.7563 15.9875 69.0099 16.3952C68.2624 16.8033 67.6694 17.4005 67.2309 18.1847L67.2308 18.1849C66.7946 18.971 66.5783 19.9261 66.5783 21.0471C66.5783 22.1649 66.7946 23.1184 67.2308 23.9044ZM72.7458 18.4067L72.7461 18.4069C73.0849 18.6314 73.346 18.963 73.5277 19.4061L73.5279 19.4065C73.7129 19.8494 73.8068 20.3955 73.8068 21.0471C73.8068 21.6987 73.7129 22.2448 73.5279 22.6878L73.5277 22.6882C73.346 23.1312 73.0849 23.4628 72.7461 23.6873L72.7458 23.6875C72.4102 23.912 72.0039 24.0259 71.5232 24.0259C71.0461 24.0259 70.6395 23.9121 70.3004 23.6873C69.9615 23.4628 69.6987 23.1311 69.5137 22.688C69.332 22.2449 69.2397 21.6987 69.2397 21.0471C69.2397 20.3955 69.332 19.8493 69.5137 19.4063C69.6987 18.9632 69.9615 18.6315 70.3004 18.4069C70.6395 18.1822 71.0461 18.0683 71.5232 18.0683C72.0039 18.0683 72.4102 18.1822 72.7458 18.4067Z" fill="white" stroke="white" stroke-width="0.142143"/>
<path d="M57.3127 17.977V18.0481H57.3838H60.4156V26.1001V26.1712H60.4867H62.9211H62.9922V26.1001V18.0481H66.019H66.0901V17.977V15.9932V15.9221H66.019H57.3838H57.3127V15.9932V17.977Z" fill="white" stroke="white" stroke-width="0.142143"/>
<path d="M135.803 34.709V34.6379H135.732H133.268H133.197V34.709V40.4271L129.221 34.6686L129.2 34.6379H129.162H127.037H126.966V34.709V44.8159V44.887H127.037H129.506H129.578V44.8159V39.1159L133.579 44.8566L133.6 44.887H133.637H135.732H135.803V44.8159V34.709Z" fill="#D9D9D9" stroke="#D9D9D9" stroke-width="0.142143"/>
<path d="M118.409 44.887H118.461L118.477 44.8374L119.133 42.7649H122.557L123.215 44.8374L123.231 44.887H123.283H125.937H126.036L126.004 44.793L122.557 34.686L122.54 34.6379H122.489H119.202H119.151L119.135 34.686L115.688 44.793L115.656 44.887H115.755H118.409ZM121.923 40.7672H119.766L120.843 37.3648L121.923 40.7672Z" fill="#D9D9D9" stroke="#D9D9D9" stroke-width="0.142143"/>
<path d="M114.721 34.709V34.6379H114.65H112.181H112.11V34.709V44.8159V44.887H112.181H114.65H114.721V44.8159V34.709Z" fill="#D9D9D9" stroke="#D9D9D9" stroke-width="0.142143"/>
<path d="M110.699 34.709V34.6379H110.628H108.163H108.092V34.709V40.4271L104.116 34.6686L104.095 34.6379H104.058H101.933H101.862V34.709V44.8159V44.887H101.933H104.402H104.473V44.8159V39.1159L108.474 44.8566L108.495 44.887H108.532H110.628H110.699V44.8159V34.709Z" fill="#D9D9D9" stroke="#D9D9D9" stroke-width="0.142143"/>
<path d="M100.453 34.709V34.6379H100.382H97.9131H97.842V34.709V44.8159V44.887H97.9131H100.382H100.453V44.8159V34.709Z" fill="#D9D9D9" stroke="#D9D9D9" stroke-width="0.142143"/>
<path d="M89.2858 44.887H89.3378L89.3535 44.8374L90.0099 42.7649H93.4341L94.0918 44.8374L94.1076 44.887H94.1596H96.8135H96.9128L96.8808 44.793L93.4337 34.686L93.4173 34.6379H93.3664H90.0789H90.0281L90.0117 34.686L86.5646 44.793L86.5325 44.887H86.6318H89.2858ZM92.8001 40.7672H90.6426L91.7202 37.3647L92.8001 40.7672Z" fill="#D9D9D9" stroke="#D9D9D9" stroke-width="0.142143"/>
<path d="M77.7014 44.8159V44.887H77.7725H80.2418H80.3129V44.8159V41.4275H81.4642L83.3121 44.8497L83.3322 44.887H83.3746H86.0684H86.1887L86.1307 44.7816L84.0495 41.0031C84.5904 40.7429 85.0131 40.3751 85.3153 39.8993L85.3154 39.8991C85.6332 39.3953 85.7903 38.786 85.7903 38.0747C85.7903 37.3732 85.6366 36.7629 85.3262 36.2467C85.0162 35.7276 84.5748 35.3302 84.0044 35.0547C83.4373 34.7759 82.766 34.6379 81.9928 34.6379H77.7725H77.7014V34.709V44.8159ZM81.459 39.3607H80.3129V36.7491H81.459C81.8219 36.7491 82.1229 36.8009 82.3645 36.9016L82.3645 36.9016L82.3653 36.9019C82.6058 36.9989 82.7845 37.1445 82.9053 37.3376L82.9056 37.338C83.0262 37.5277 83.089 37.7717 83.089 38.0747C83.089 38.3776 83.0262 38.6196 82.906 38.8057C82.7856 38.9889 82.6072 39.1283 82.3663 39.2224C82.1275 39.3137 81.8259 39.3607 81.459 39.3607Z" fill="#D9D9D9" stroke="#D9D9D9" stroke-width="0.142143"/>
<path d="M67.8401 44.8159V44.887H67.9111H70.3805H70.4515V44.8159V42.1019L71.3618 40.965L73.8525 44.8543L73.8735 44.887H73.9124H76.8656H76.9975L76.925 44.7768L73.2669 39.2237L76.8562 34.7535L76.949 34.6379H76.8008H73.8924H73.858L73.8367 34.6649L70.4807 38.9116H70.4515V34.709V34.6379H70.3805H67.9111H67.8401V34.709V44.8159Z" fill="#D9D9D9" stroke="#D9D9D9" stroke-width="0.142143"/>
<path d="M63.8976 34.6379H63.8266V34.709V41.0159C63.8266 41.3537 63.751 41.6522 63.6015 41.9134C63.4517 42.175 63.2434 42.3796 62.9752 42.528L62.9749 42.5282C62.7112 42.676 62.4009 42.7511 62.0419 42.7511C61.6829 42.7511 61.3708 42.676 61.1035 42.528C60.8355 42.3797 60.6272 42.1751 60.4775 41.9137C60.3312 41.6524 60.2572 41.3538 60.2572 41.0159V34.709V34.6379H60.1861H57.7168H57.6457V34.709V41.2282C57.6457 41.9933 57.8283 42.6634 58.1958 43.2356L58.1959 43.2358C58.5628 43.8039 59.0773 44.2433 59.7368 44.5545L59.737 44.5546C60.3968 44.8625 61.1657 45.0153 62.0419 45.0153C62.9083 45.0153 63.6722 44.8625 64.3318 44.5546L64.332 44.5545C64.9915 44.2434 65.5075 43.804 65.8778 43.236L65.8779 43.2359C66.2488 42.6636 66.4331 41.9934 66.4331 41.2282V34.709V34.6379H66.362H63.8976Z" fill="#D9D9D9" stroke="#D9D9D9" stroke-width="0.142143"/>
<path d="M117.488 61.6138V61.6848H117.559H124.278H124.349V61.6138V59.6299V59.5588H124.278H120.099V51.5068V51.4358H120.028H117.559H117.488V51.5068V61.6138Z" fill="white" stroke="white" stroke-width="0.142143"/>
<path d="M108.931 61.6848H108.983L108.999 61.6352L109.655 59.5628H113.08L113.737 61.6353L113.753 61.6848H113.805H116.459H116.558L116.526 61.5908L113.079 51.4839L113.063 51.4358H113.012H109.724H109.674L109.657 51.4839L106.21 61.5908L106.178 61.6848H106.277H108.931ZM112.446 57.5651H110.288L111.366 54.1626L112.446 57.5651Z" fill="white" stroke="white" stroke-width="0.142143"/>
<path d="M99.7925 51.4859L99.777 51.4358H99.7246H96.9609H96.8616L96.8937 51.5298L100.341 61.6367L100.357 61.6848H100.408H103.696H103.746L103.763 61.6367L107.21 51.5298L107.242 51.4358H107.143H104.379H104.326L104.311 51.4859L102.052 58.8058L99.7925 51.4859Z" fill="white" stroke="white" stroke-width="0.142143"/>
<path d="M95.9271 51.5068V51.4358H95.8561H93.3867H93.3156V51.5068V61.6138V61.6848H93.3867H95.8561H95.9271V61.6138V51.5068Z" fill="white" stroke="white" stroke-width="0.142143"/>
<path d="M83.4729 53.4907V53.5618H83.5439H86.5758V61.6138V61.6848H86.6468H89.0813H89.1523V61.6138V53.5618H92.1792H92.2502V53.4907V51.5068V51.4358H92.1792H83.5439H83.4729V51.5068V53.4907Z" fill="white" stroke="white" stroke-width="0.142143"/>
<path d="M80.0643 54.6085L80.0584 54.5439C80.0268 54.1996 79.8873 53.9374 79.642 53.75L79.6413 53.7494L79.6413 53.7494C79.399 53.5589 79.0461 53.4586 78.5727 53.4586C78.259 53.4586 78.0023 53.4991 77.8002 53.5772C77.5966 53.6559 77.4494 53.7623 77.3529 53.8936L77.3525 53.8942C77.2554 54.0232 77.2052 54.1714 77.2021 54.3413L77.2021 54.3431C77.1959 54.4826 77.2234 54.6018 77.282 54.7036C77.3456 54.8082 77.4374 54.9028 77.5595 54.9865C77.6867 55.0682 77.8409 55.1415 78.0227 55.2057C78.2055 55.2703 78.412 55.3271 78.6424 55.3759L78.6432 55.3761L78.6432 55.3761L79.5205 55.5734C79.5206 55.5734 79.5207 55.5734 79.5209 55.5735C80.0304 55.6829 80.4812 55.8292 80.8727 56.0128C80.8727 56.0128 80.8727 56.0128 80.8727 56.0128L80.8425 56.0772C81.2316 56.2581 81.5576 56.4736 81.8203 56.7236L80.0643 54.6085ZM80.0643 54.6085H80.1292H82.4938H82.5656L82.5648 54.5367C82.558 53.8957 82.3899 53.3291 82.0588 52.8394C81.728 52.3503 81.2632 51.9721 80.6674 51.7042C80.0742 51.4326 79.377 51.2981 78.5777 51.2981C77.7948 51.2981 77.0948 51.4311 76.4791 51.6988C75.8638 51.9663 75.3792 52.3406 75.0283 52.8226C74.6762 53.3062 74.5025 53.8689 74.5058 54.5079M80.0643 54.6085L81.8691 56.672C82.1421 56.9286 82.3492 57.2247 82.4895 57.5598C82.6299 57.8952 82.7011 58.2697 82.7045 58.6823L82.7045 58.6832C82.7011 59.3339 82.5347 59.8964 82.2026 60.3672C81.8709 60.8374 81.3951 61.1956 80.7793 61.4433C80.1667 61.6911 79.4305 61.8136 78.5727 61.8136C77.7112 61.8136 76.9569 61.686 76.3115 61.4286C75.6645 61.1705 75.1588 60.7771 74.7976 60.2478C74.4353 59.7171 74.2515 59.0494 74.2414 58.2495L74.2405 58.1775H74.3125H76.6771H76.7439L76.748 58.2442C76.7673 58.5595 76.8523 58.8173 76.9992 59.0213C77.1469 59.2266 77.3502 59.3832 77.6119 59.4906C77.8778 59.5983 78.1876 59.6531 78.5428 59.6531C78.8694 59.6531 79.143 59.6094 79.3655 59.5245L79.3658 59.5244C79.5929 59.4389 79.7625 59.3221 79.8791 59.1764C79.9953 59.0312 80.0548 58.8659 80.0581 58.678C80.0548 58.503 80.0003 58.3569 79.8958 58.2358L79.8952 58.2351L79.8952 58.2351C79.7889 58.1089 79.6206 57.996 79.3841 57.8999L79.383 57.8994L79.383 57.8994C79.1487 57.7996 78.8471 57.707 78.477 57.622L78.4769 57.622L77.4096 57.3753C77.4096 57.3753 77.4095 57.3753 77.4095 57.3753C76.5171 57.1728 75.8084 56.8446 75.2882 56.3872L75.288 56.387C74.7619 55.9209 74.5025 55.2918 74.5058 54.5079M74.5058 54.5079C74.5058 54.508 74.5058 54.5081 74.5058 54.5082L74.5769 54.5078L74.5058 54.5075C74.5058 54.5076 74.5058 54.5077 74.5058 54.5079Z" fill="white" stroke="white" stroke-width="0.142143"/>
<path d="M65.8655 61.6138V61.6848H65.9365H73.0602H73.1313V61.6138V59.6299V59.5588H73.0602H68.4769V57.6233H72.696H72.7671V57.5522V55.5634V55.4924H72.696H68.4769V53.5618H73.0602H73.1313V53.4907V51.5068V51.4358H73.0602H65.9365H65.8655V51.5068V61.6138Z" fill="white" stroke="white" stroke-width="0.142143"/>
<path d="M57.6477 61.6138V61.6848H57.7188H60.1881H60.2592V61.6138V57.6233H64.2488H64.3199V57.5522V55.5634V55.4924H64.2488H60.2592V53.5618H64.6928H64.7638V53.4907V51.5068V51.4358H64.6928H57.7188H57.6477V51.5068V61.6138Z" fill="white" stroke="white" stroke-width="0.142143"/>
<path d="M0.292969 14.4658H51.1563V63.7887H0.292969V14.4658Z" fill="#999999" stroke="#111111" stroke-width="0.585939"/>
<path d="M7.74121 21.5898V30.2374H10.7383V24.5547H16.7324V21.5898H7.74121Z" fill="white" stroke="white" stroke-width="0.585939"/>
<path fill-rule="evenodd" clip-rule="evenodd" d="M7.50586 21.3574H16.9656V24.7859H10.9715V30.4686H7.50586V21.3574ZM7.97446 21.821V30.005H10.5029V24.3223H16.497V21.821H7.97446Z" fill="white" stroke="white" stroke-width="0.585939"/>
<path d="M26.9736 40.6162V49.2638H29.9707V43.5811H35.9648V40.6162H26.9736Z" fill="white" stroke="white" stroke-width="0.585939"/>
<path fill-rule="evenodd" clip-rule="evenodd" d="M26.7393 40.3818H36.199V43.8103H30.2049V49.493H26.7393V40.3818ZM27.2079 40.8454V49.0294H29.7363V43.3467H35.7304V40.8454H27.2079Z" fill="white"/>
<path d="M7.49121 56.9229H16.2326V53.958H10.4883V48.0282H7.49121L7.49121 56.9229Z" fill="white" stroke="white" stroke-width="0.585939"/>
<path fill-rule="evenodd" clip-rule="evenodd" d="M7.25781 57.1533L7.25781 47.7951H10.7235V53.7249H16.4678V57.1533H7.25781ZM7.72641 56.6897H15.9992V54.1884H10.2549V48.2587H7.72641L7.72641 56.6897Z" fill="white" stroke="white" stroke-width="0.585939"/>
<path d="M26.9736 38.6367H35.715V35.6718H29.9707V29.7421H26.9736V38.6367Z" fill="white" stroke="white" stroke-width="0.585939"/>
<path fill-rule="evenodd" clip-rule="evenodd" d="M26.7393 38.873V29.5148H30.2049V35.4446H35.9492V38.873H26.7393ZM27.2079 38.4095H35.4806V35.9082H29.7363V29.9784H27.2079V38.4095Z" fill="white"/>
<path d="M43.8311 56.7979V48.1503H40.834V53.833H34.8399V56.7979H43.8311Z" fill="white" stroke="white" stroke-width="0.585939"/>
<path fill-rule="evenodd" clip-rule="evenodd" d="M44.0664 57.0303H34.6067V53.6018H40.6008V47.9191H44.0664V57.0303ZM43.5978 56.5667V48.3827H41.0694V54.0654H35.0753V56.5667H43.5978Z" fill="white" stroke="white" stroke-width="0.585939"/>
<path d="M24.4746 38.3906V29.7431H21.4776V35.4257H15.4835V38.3906H24.4746Z" fill="white" stroke="white" stroke-width="0.585939"/>
<path fill-rule="evenodd" clip-rule="evenodd" d="M24.7109 38.623H15.2512V35.1946H21.2453V29.5119H24.7109V38.623ZM24.2423 38.1595V29.9755H21.7139V35.6582H15.7198V38.1595H24.2423Z" fill="white"/>
<path d="M43.332 21.7109H34.5906V24.6758H40.335V30.6056H43.332V21.7109Z" fill="white" stroke="white" stroke-width="0.585939"/>
<path fill-rule="evenodd" clip-rule="evenodd" d="M43.5664 21.4785V30.8367H40.1008V24.907H34.3564V21.4785H43.5664ZM43.0978 21.9421H34.825V24.4434H40.5694V30.3732H43.0978V21.9421Z" fill="white" stroke="white" stroke-width="0.585939"/>
<path d="M24.7246 40.1201H15.9832V43.085H21.7276V49.0148H24.7246V40.1201Z" fill="white" stroke="white" stroke-width="0.585939"/>
<path fill-rule="evenodd" clip-rule="evenodd" d="M24.959 39.8848V49.243H21.4933V43.3132H15.749V39.8848H24.959ZM24.4904 40.3483H16.2176V42.8496H21.9619V48.7794H24.4904V40.3483Z" fill="white"/>
<path d="M13.4863 27.7656H18.4814V32.7071H13.4863V27.7656Z" fill="white"/>
<path d="M13.4844 46.0488H18.979V51.4844H13.4844V46.0488Z" fill="white"/>
<path d="M32.9678 46.0488H38.4624V51.4844H32.9678V46.0488Z" fill="white"/>
<path d="M32.4688 27.2725H37.9633V32.7081H32.4688V27.2725Z" fill="white"/>
<path d="M7.49121 35.1797H10.4883V43.086H7.49121V35.1797Z" fill="white"/>
<path d="M41.458 35.1797H43.9555V43.086H41.458V35.1797Z" fill="white"/>
<path d="M21.9766 56.9229V54.4521H29.9687V56.9229H21.9766Z" fill="white"/>
<path d="M21.9766 24.3066V21.8359H29.9687V24.3066H21.9766Z" fill="white"/>
<path d="M10.4883 37.6504H13.4829V40.6128H10.4883V37.6504Z" fill="white"/>
<path d="M38.46 37.6504H41.4545V40.6128H38.46V37.6504Z" fill="white"/>
<path d="M24.4746 24.3066H27.4692V27.2691H24.4746V24.3066Z" fill="white"/>
<path d="M24.4746 51.4824H27.4692V54.4449H24.4746V51.4824Z" fill="white"/>
<path fill-rule="evenodd" clip-rule="evenodd" d="M13.0146 32.6751H10.9565V34.7112H13.0146V32.6751ZM10.4883 32.2119V35.1744H13.4829V32.2119H10.4883Z" fill="white"/>
<path fill-rule="evenodd" clip-rule="evenodd" d="M13.0146 43.5472H10.9565V45.5832H13.0146V43.5472ZM10.4883 43.084V46.0464H13.4829V43.084H10.4883Z" fill="white"/>
<path fill-rule="evenodd" clip-rule="evenodd" d="M40.4893 43.5472H38.4311V45.5832H40.4893V43.5472ZM37.9629 43.084V46.0464H40.9575V43.084H37.9629Z" fill="white"/>
<path fill-rule="evenodd" clip-rule="evenodd" d="M32.4961 51.9456H30.4379V53.9817H32.4961V51.9456ZM29.9697 51.4824V54.4449H32.9643V51.4824H29.9697Z" fill="white"/>
<path fill-rule="evenodd" clip-rule="evenodd" d="M21.5088 51.9456H19.4506V53.9817H21.5088V51.9456ZM18.9824 51.4824V54.4449H21.977V51.4824H18.9824Z" fill="white"/>
<path fill-rule="evenodd" clip-rule="evenodd" d="M40.9863 32.6751H38.9282V34.7112H40.9863V32.6751ZM38.46 32.2119V35.1744H41.4545V32.2119H38.46Z" fill="white"/>
<path fill-rule="evenodd" clip-rule="evenodd" d="M32.4961 24.7698H30.4379V26.8059H32.4961V24.7698ZM29.9697 24.3066V27.2691H32.9643V24.3066H29.9697Z" fill="white"/>
<path fill-rule="evenodd" clip-rule="evenodd" d="M21.0088 25.263H18.9506V27.2991H21.0088V25.263ZM18.4824 24.7998V27.7622H21.477V24.7998H18.4824Z" fill="white"/>
</svg>
