<svg width="170" height="61" viewBox="0 0 170 61" fill="none" xmlns="http://www.w3.org/2000/svg">
<path d="M169.579 22.6663C169.552 22.5144 169.471 22.3773 169.35 22.2805C169.229 22.1838 169.077 22.134 168.922 22.1405C168.768 22.1368 168.618 22.1835 168.494 22.2734C168.37 22.3632 168.279 22.4912 168.236 22.6375C168.184 22.7757 168.184 22.933 168.143 23.0769C167.9 23.9424 167.677 24.8175 167.389 25.6695C167.244 26.1144 167.024 26.5321 166.74 26.9053C164.003 23.0424 161.056 19.546 158.043 15.9325C158.262 15.7656 158.466 15.6197 158.66 15.4624C159.918 14.4318 160.672 13.5434 161.236 12.2615C161.93 10.6898 162.222 9.14885 161.872 7.46397C161.534 5.79918 160.601 4.31194 159.245 3.27675C157.889 2.24156 156.202 1.7283 154.495 1.83172C150.67 2.06967 147.822 5.12855 147.731 8.93201C147.694 10.5862 148.175 12.0926 148.972 13.5203C149.095 13.7448 149.211 13.9732 149.399 14.3282C148.767 14.3591 148.134 14.3205 147.511 14.2131C146.075 14.0212 144.787 13.5184 143.473 12.9235C142.882 12.6549 142.395 12.7623 142.032 13.1807C141.715 13.5453 141.674 14.073 141.974 14.5834C142.149 14.8879 142.36 15.1701 142.604 15.424C145.089 17.9455 148.103 19.0419 151.646 18.7131C152.095 18.6709 152.539 18.6095 152.999 18.5539C154.667 20.4882 156.402 22.3477 157.831 24.4548C158.231 25.0637 158.577 25.7058 158.867 26.3738C159.244 27.231 159.319 28.19 159.079 29.0949C158.474 31.5896 155.691 33.0289 153.395 31.9926C153.395 31.9926 153.507 31.5762 153.538 31.4073C153.948 29.1314 153.801 26.7153 152.959 24.7656C151.963 22.4782 149.963 20.9468 147.557 20.8624C144.901 20.7684 143.021 22.0138 141.84 24.3166C141.09 25.7789 140.907 27.3716 140.98 28.9951C141.075 31.0734 141.796 32.954 142.82 34.7387C142.953 34.9709 143.079 35.2069 143.224 35.4737C142.016 36.3852 140.746 36.8169 139.291 36.5368C138.232 36.3334 137.496 35.6579 136.897 34.8193C135.903 33.4299 135.476 31.8506 135.351 30.1715C135.093 26.6482 135.637 23.2209 136.661 19.8664C137.142 18.2871 137.757 16.7481 138.34 15.2014C138.924 13.6547 138.727 12.2231 137.625 10.993C136.524 9.76293 135.124 9.32732 133.509 9.76677C132.927 9.90456 132.388 10.179 131.935 10.5671C131.483 10.9551 131.131 11.4454 130.909 11.9966C130.385 13.271 129.934 14.5735 129.557 15.898C128.662 19.188 128.083 22.5549 127.829 25.9535C127.56 29.1352 127.545 32.3073 128.233 35.4506C128.287 35.6963 128.362 36.009 128.362 36.009C128.003 36.6109 127.578 37.172 127.096 37.6824C126.188 38.5728 125.017 38.6822 123.888 38.0777C123.135 37.6556 122.533 37.011 122.166 36.2336C121.409 34.7559 121.076 33.1632 120.98 31.5301C120.827 28.9567 121.188 26.4313 121.795 23.9366C122.39 21.4473 123.212 19.0168 124.25 16.6752C124.513 16.0891 124.63 15.4488 124.592 14.8082C124.553 14.1676 124.36 13.5457 124.028 12.995C123.696 12.4443 123.236 11.9809 122.686 11.6442C122.136 11.3074 121.512 11.1071 120.868 11.0602C119.3 10.9335 118.059 11.5591 117.17 12.8314C116.083 14.4355 115.256 16.1995 114.72 18.0588C112.848 24.1009 112.595 30.5233 113.985 36.6922C114.032 36.9014 114.117 37.2391 114.117 37.2391C113.701 37.93 113.006 38.5268 112.159 38.6285C111.793 38.6861 111.418 38.6305 111.084 38.4691C110.751 38.3078 110.476 38.0485 110.296 37.7266C109.977 37.2467 109.752 36.7116 109.633 36.1491C109.472 35.1672 109.396 34.1734 109.405 33.1785C109.455 29.5324 109.968 25.942 110.547 22.3535C111.462 16.6924 112.376 11.0307 113.29 5.36843C113.393 4.74907 113.339 4.11404 113.133 3.52044C112.854 2.69203 112.301 1.98137 111.565 1.50329C110.828 1.0252 109.951 0.807602 109.075 0.885653C108.224 0.95808 107.421 1.30845 106.791 1.882C106.162 2.45556 105.742 3.21999 105.596 4.05584C105.068 7.16653 104.583 10.2849 104.077 13.3994C103.951 14.1805 103.789 15.0306 103.66 15.8059C103.66 15.8059 103.145 15.3587 102.935 15.2302C101.465 14.2546 99.6873 13.8452 97.9351 14.0788C95.9523 14.3263 94.3134 15.2609 92.8504 16.5485C91.3812 17.8586 90.165 19.4239 89.2616 21.1675C86.5946 26.1934 85.6824 31.5474 86.3047 37.1777C86.3588 37.6651 86.4187 38.1526 86.4805 38.6726C85.6388 38.9467 84.7331 38.9608 83.8831 38.7129C83.9063 38.5632 83.9198 38.4423 83.9411 38.3291C84.4551 35.6846 84.5781 32.9798 84.3064 30.3C84.0281 27.8053 83.427 25.42 82.2848 23.1806C81.419 21.4842 80.3058 19.9739 78.7288 18.8551C76.5166 17.2867 74.1221 16.9438 71.5453 17.8266C70.2591 18.2912 69.0772 19.0018 68.0666 19.9183C66.4395 21.3567 65.1096 23.0956 64.1511 25.0381C61.3012 30.7081 60.5326 36.6506 61.8455 42.8656C61.975 43.4778 62.1354 43.9882 62.1354 43.9882C61.8246 44.3376 61.4592 44.6351 61.0532 44.8691C60.7753 45.0407 60.4853 45.192 60.1854 45.3219C59.0065 45.7537 58.0421 45.3795 57.4508 44.2703C57.0729 43.5297 56.8806 42.7095 56.8903 41.8793C56.8787 39.8223 57.0423 37.7681 57.3793 35.7385C58.1852 30.5917 59.0316 25.4526 59.8762 20.3136C60.1463 18.8549 60.1028 17.356 59.7486 15.9152C58.5504 11.3096 54.0281 8.19895 49.2913 8.7094C45.142 9.15653 41.7908 12.0983 40.7878 16.1801C40.7472 16.3432 40.6873 16.5024 40.6351 16.6636C40.6351 16.6636 40.8071 14.5393 40.7859 13.8696C40.5926 7.65587 35.0557 3.87545 29.9806 4.5874C25.9357 5.1631 22.5961 8.1433 21.8308 12.1118C21.4443 14.0788 21.166 16.063 20.8471 18.0396C20.1127 22.5901 19.3802 27.1394 18.6497 31.6875C18.4564 32.8504 18.3018 34.0171 18.0699 35.1704L18.0525 35.2434C17.988 35.5147 17.8668 35.7696 17.6969 35.9916C17.527 36.2136 17.312 36.3977 17.066 36.5321C16.8199 36.6664 16.5482 36.7481 16.2684 36.7717C15.9886 36.7953 15.7069 36.7604 15.4416 36.6692C14.2928 36.294 13.0911 36.1029 11.8817 36.1031C5.32048 36.1031 0 41.649 0 48.4883C0 53.6849 3.07285 58.1312 7.42703 59.9696C8.79237 60.5767 10.2737 60.8838 11.7696 60.8696H11.8817C13.3388 60.8701 14.7823 60.5919 16.1334 60.0502C16.66 59.8462 17.172 59.6071 17.666 59.3344C21.8211 57.0317 24.032 53.3856 24.9036 48.8548C25.352 46.5194 25.6651 44.159 26.0439 41.8102C26.7821 37.2046 27.523 32.606 28.2664 28.0145C28.4596 26.8765 28.5969 25.7309 28.8462 24.6102C29.1747 23.1844 30.5353 22.3516 32.0215 22.5742C32.6876 22.6868 33.2885 23.0394 33.7093 23.5645C34.13 24.0895 34.341 24.7502 34.3019 25.42C34.2822 25.7418 34.2435 26.0622 34.186 26.3795C33.9077 28.1354 33.6217 29.8913 33.3395 31.6452C32.703 35.5779 32.0678 39.5093 31.4339 43.4394C30.9411 46.5098 30.4271 49.5687 29.9806 52.641C29.5806 55.3948 31.8089 57.8818 34.6092 57.8875C36.9747 57.8875 38.9247 56.1911 39.3055 53.8039C39.8775 50.2218 40.4522 46.6365 41.0294 43.0479C41.7199 38.7711 42.4105 34.4937 43.1011 30.2156C43.4992 27.7439 43.8877 25.2703 44.3071 22.8006C44.6144 20.9891 46.5431 19.8856 48.238 20.753C48.7844 21.0437 49.2253 21.4972 49.4985 22.0497C49.7717 22.6023 49.8635 23.226 49.7609 23.833C49.6044 24.8271 49.4343 25.8192 49.2758 26.8132C48.2883 32.9713 47.2891 39.1255 46.3209 45.2855C45.8628 48.187 46.719 50.699 48.8197 52.7523C52.3332 56.1815 57.5435 55.6692 60.7285 53.1361C62.0047 52.1156 63.0916 50.8817 63.9405 49.49C64.0642 49.2885 64.1994 49.0947 64.3599 48.8548L64.9396 49.5629C65.6397 50.4556 66.4896 51.2216 67.452 51.8273C68.369 52.4116 69.4037 52.7896 70.4833 52.9348C71.563 53.08 72.6616 52.9889 73.7021 52.6679C75.3641 52.19 76.7576 51.2555 78.0002 50.0868C79.6185 48.531 80.9294 46.6885 81.8655 44.6541C82.0587 44.2454 82.1843 43.9076 82.1843 43.9076C84.202 43.923 85.6051 43.6409 86.9173 43.0095L87.6556 42.668C87.8005 42.9712 87.9281 43.2437 88.0537 43.5008C88.8808 45.2433 89.9264 46.8303 91.4725 48.0316C92.5707 48.8884 93.8833 49.4317 95.2692 49.6032C96.6551 49.7746 98.0619 49.5676 99.3382 49.0045C101.078 48.2369 102.43 47.0222 103.634 45.5983C103.806 45.3929 103.982 45.1895 104.183 44.9516C104.438 45.3354 104.639 45.6462 104.862 45.9456C105.656 47.0126 106.676 47.7552 108.008 48.0028C110.29 48.4269 112.244 47.7533 113.912 46.1989C114.854 45.285 115.603 44.1944 116.117 42.9904C116.22 42.7639 116.324 42.5394 116.457 42.2515C116.666 42.4895 116.83 42.6756 116.989 42.8637C117.66 43.6819 118.467 44.3802 119.376 44.9285C121.658 46.2622 124.035 46.4637 126.488 45.4505C128.279 44.7098 129.601 43.4394 130.546 41.7718C130.679 41.5377 130.819 41.3055 130.979 41.0311C131.383 41.3688 131.729 41.697 132.111 41.9733C134.85 43.9441 137.909 44.4296 141.179 43.8558C143.605 43.4279 145.872 42.3684 147.75 40.7854C148.305 40.3249 148.572 40.1003 148.572 40.1003C149.233 40.4685 149.917 40.7948 150.62 41.0771C153.494 42.0232 155.384 42.0366 157.809 41.7296C161.095 41.3093 162.985 39.8739 164.948 37.7496C166.138 36.5019 167.102 35.0609 167.801 33.4894C169.432 29.9316 169.587 27.3486 169.707 24.0863C169.713 23.6099 169.67 23.1341 169.579 22.6663ZM156.725 9.61709C156.489 10.7301 155.726 11.4747 154.899 12.2807C154.184 11.6999 153.636 10.942 153.31 10.0834C153.206 9.77459 153.162 9.44899 153.181 9.12391C153.219 7.9111 154.029 7.20491 155.195 7.35075C156.236 7.46397 156.955 8.52902 156.725 9.60749V9.61709ZM71.6245 37.5251C72.2043 39.0603 73.2615 40.2117 74.5235 41.2076C74.8365 41.4532 75.1612 41.6874 75.5536 41.9752C74.8694 43.1266 74.1485 44.207 72.8865 44.7597C71.9299 45.178 70.9694 45.084 70.2253 44.3241C69.7436 43.8152 69.3393 43.2392 69.0252 42.6142C68.4783 41.5569 68.2521 40.3863 68.14 39.2138C67.825 35.6847 68.2637 32.2612 69.7615 29.0143C70.2253 28.0068 70.7935 27.055 71.6265 26.2989C71.9687 25.9702 72.3598 25.6958 72.786 25.4853C73.2069 25.274 73.6827 25.1951 74.1499 25.2593C74.6171 25.3234 75.0535 25.5274 75.4009 25.8441C75.6343 26.0365 75.8427 26.2569 76.0212 26.5004C77.1306 28.0759 77.4572 29.8798 77.6098 31.8966C76.8448 31.4345 75.9639 31.1963 75.0685 31.2096C74.293 31.208 73.5364 31.4463 72.9036 31.8913C72.2708 32.3363 71.7934 32.966 71.5376 33.6928C71.0945 34.938 71.1255 36.301 71.6245 37.5251ZM100.287 37.4291C99.9612 38.2417 99.556 39.0207 99.0773 39.7549C98.7575 40.2337 98.3551 40.6527 97.8887 40.9927C96.9456 41.6931 95.8904 41.6106 95.1019 40.7413C94.6593 40.2313 94.2953 39.6589 94.0216 39.043C93.4553 37.8263 93.2311 36.5061 93.1326 35.182C92.9007 32.0789 93.1848 29.022 94.3173 26.0974C94.7017 25.1742 95.1748 24.29 95.73 23.4569C96.0319 23.0257 96.4185 22.6595 96.8664 22.3803C97.7341 21.8046 98.6753 21.8699 99.4175 22.6087C99.8368 23.0389 100.186 23.5316 100.451 24.069C101.137 25.4315 101.383 26.9188 101.501 28.4213C101.545 28.997 101.501 29.5727 101.501 30.1484C101.583 32.631 101.171 35.1053 100.287 37.4291Z" fill="white"/>
</svg>
