<svg width="153" height="153" viewBox="0 0 153 153" fill="none" xmlns="http://www.w3.org/2000/svg">
<path d="M58.1686 108.586L108.586 76.2076L58.1686 43.8296V108.586ZM76.2217 152.372C65.6869 152.372 55.7848 150.373 46.5154 146.375C37.2461 142.377 29.1833 136.952 22.3271 130.098C15.471 123.245 10.0426 115.185 6.04194 105.92C2.04262 96.6545 0.0429688 86.7551 0.0429688 76.2217C0.0429688 65.6869 2.04196 55.7848 6.03993 46.5154C10.0379 37.2461 15.4636 29.1833 22.3171 22.3271C29.1706 15.471 37.23 10.0426 46.4954 6.04194C55.7608 2.04262 65.6602 0.0429688 76.1936 0.0429688C86.7284 0.0429688 96.6305 2.04195 105.9 6.03993C115.169 10.0379 123.232 15.4636 130.088 22.3171C136.944 29.1706 142.373 37.23 146.373 46.4954C150.373 55.7608 152.372 65.6602 152.372 76.1936C152.372 86.7284 150.373 96.6305 146.375 105.9C142.377 115.169 136.952 123.232 130.098 130.088C123.245 136.944 115.185 142.373 105.92 146.373C96.6545 150.373 86.7551 152.372 76.2217 152.372ZM76.2076 140.346C94.113 140.346 109.279 134.133 121.706 121.706C134.133 109.279 140.346 94.113 140.346 76.2076C140.346 58.3023 134.133 43.1361 121.706 30.7093C109.279 18.2824 94.113 12.069 76.2076 12.069C58.3023 12.069 43.1361 18.2824 30.7093 30.7093C18.2824 43.1361 12.069 58.3023 12.069 76.2076C12.069 94.113 18.2824 109.279 30.7093 121.706C43.1361 134.133 58.3023 140.346 76.2076 140.346Z" fill="white"/>
</svg>
