<svg width="197" height="107" viewBox="0 0 197 107" fill="none" xmlns="http://www.w3.org/2000/svg">
<path d="M4.08076 105.705L6.80398 100.276C6.86868 100.137 7.09585 100.116 7.18212 100.265L9.90533 105.703L12.6185 99.5938C12.6515 99.5088 12.7162 99.4763 12.791 99.4763C12.9104 99.4763 13.0283 99.5938 12.9635 99.7311L10.0664 106.203C10.0017 106.352 9.79606 106.342 9.71985 106.203L6.98514 100.711L4.25043 106.203C4.18572 106.342 3.97005 106.352 3.90391 106.203L1.01823 99.7311C0.95353 99.5924 1.07287 99.4763 1.19077 99.4763C1.25547 99.4763 1.32017 99.5088 1.35324 99.5938L4.07645 105.703L4.08076 105.705ZM20.466 99.6801C20.466 99.5414 20.5638 99.4777 20.6601 99.4777C20.7565 99.4777 20.8542 99.5414 20.8542 99.6801V106.067C20.8542 106.185 20.7565 106.249 20.6601 106.249C20.5638 106.249 20.466 106.185 20.466 106.067V99.6801ZM34.0605 99.6801C34.0605 99.5414 34.1583 99.4777 34.2446 99.4777C34.3423 99.4777 34.4286 99.5414 34.4286 99.6801V106.035C34.4286 106.173 34.3524 106.237 34.2661 106.237C34.2014 106.237 34.1152 106.195 34.0505 106.12L29.3488 100.128V106.056C29.3488 106.183 29.2626 106.247 29.1763 106.247C29.0785 106.247 28.9922 106.183 28.9922 106.056V99.7014C28.9922 99.5527 29.0685 99.4777 29.1648 99.4777C29.2295 99.4777 29.3057 99.5102 29.3704 99.5952L34.062 105.587V99.6801H34.0605ZM45.077 106.247H42.5695C42.407 106.247 42.2776 106.12 42.2776 105.97V99.7424C42.2776 99.5938 42.407 99.4763 42.5695 99.4763H45.077C49.3142 99.4763 49.3142 106.246 45.077 106.246V106.247ZM42.6342 105.917H45.077C48.8383 105.917 48.8383 99.7962 45.077 99.7962H42.6342V105.917ZM58.9907 106.353C57.1201 106.353 55.4997 104.799 55.5529 102.746C55.6291 100.34 57.4335 99.3715 58.9246 99.3715C60.4156 99.3715 62.3624 100.394 62.4271 102.746C62.4918 104.8 60.8699 106.353 58.9893 106.353H58.9907ZM55.921 102.755C55.8663 104.586 57.3156 106.023 58.9907 106.023C60.6657 106.023 62.1251 104.586 62.0719 102.755C62.0072 100.574 60.2128 99.7113 58.926 99.7113C57.5644 99.7113 55.9857 100.583 55.921 102.755ZM72.3681 105.703L75.0913 100.275C75.156 100.136 75.3831 100.115 75.4694 100.263L78.1926 105.702L80.9058 99.5924C80.9388 99.5074 81.0035 99.4748 81.0783 99.4748C81.1977 99.4748 81.3156 99.5924 81.2509 99.7297L78.3537 106.202C78.289 106.35 78.0834 106.341 78.0072 106.202L75.2724 100.71L72.5377 106.202C72.473 106.341 72.2559 106.35 72.1912 106.202L69.3055 99.7297C69.2408 99.5909 69.3602 99.4748 69.4781 99.4748C69.5428 99.4748 69.6075 99.5074 69.6405 99.5924L72.3638 105.702L72.3681 105.703ZM88.1265 104.82C88.0618 104.607 88.3853 104.511 88.4514 104.735C88.7864 105.873 90.6124 106.055 91.2508 106.055C92.3205 106.055 93.974 105.692 93.974 104.372C93.974 101.924 88.2674 104.127 88.2674 101.253C88.2674 99.7849 90.2027 99.3687 91.1315 99.3687C92.1696 99.3687 93.6606 99.6023 94.0718 100.71C94.1796 100.964 93.8446 101.039 93.7684 100.827C93.4003 99.826 92.0603 99.6886 91.1415 99.6886C89.964 99.6886 88.6225 100.252 88.6225 101.265C88.6225 103.703 94.3292 101.573 94.3292 104.363C94.3292 105.927 92.5563 106.353 91.2479 106.353C90.1451 106.353 88.4701 106.055 88.1236 104.82H88.1265ZM110.392 104.82C110.328 104.607 110.651 104.511 110.717 104.735C111.052 105.873 112.88 106.055 113.517 106.055C114.586 106.055 116.24 105.692 116.24 104.372C116.24 101.924 110.533 104.127 110.533 101.253C110.533 99.7849 112.469 99.3687 113.397 99.3687C114.435 99.3687 115.926 99.6023 116.338 100.71C116.446 100.964 116.111 101.039 116.034 100.827C115.666 99.826 114.326 99.6886 113.407 99.6886C112.23 99.6886 110.888 100.252 110.888 101.265C110.888 103.703 116.595 101.573 116.595 104.363C116.595 105.927 114.822 106.353 113.514 106.353C112.411 106.353 110.736 106.055 110.389 104.82H110.392ZM126.319 103.489L123.486 99.7736C123.357 99.6249 123.443 99.4748 123.584 99.4748C123.639 99.4748 123.704 99.4961 123.757 99.5598L126.502 103.189L129.236 99.5598C129.291 99.4961 129.356 99.4748 129.409 99.4748C129.55 99.4748 129.625 99.6235 129.507 99.7736L126.686 103.489V106.043C126.686 106.182 126.588 106.246 126.502 106.246C126.404 106.246 126.318 106.182 126.318 106.043V103.489H126.319ZM136.374 104.82C136.309 104.607 136.632 104.511 136.697 104.735C137.032 105.873 138.86 106.055 139.497 106.055C140.568 106.055 142.221 105.692 142.221 104.372C142.221 101.924 136.514 104.127 136.514 101.253C136.514 99.7849 138.448 99.3687 139.379 99.3687C140.417 99.3687 141.909 99.6023 142.319 100.71C142.427 100.964 142.092 101.039 142.017 100.827C141.649 99.826 140.309 99.6886 139.39 99.6886C138.213 99.6886 136.872 100.252 136.872 101.265C136.872 103.703 142.579 101.573 142.579 104.363C142.579 105.927 140.806 106.353 139.498 106.353C138.397 106.353 136.72 106.055 136.375 104.82H136.374ZM149.095 99.4763H155.051C155.311 99.4763 155.311 99.7962 155.051 99.7962H152.251L152.261 106.045C152.261 106.183 152.154 106.247 152.067 106.247C151.981 106.247 151.883 106.183 151.883 106.045V99.7962H149.095C148.835 99.7962 148.835 99.4763 149.095 99.4763ZM162.801 105.906H167.578C167.806 105.906 167.806 106.247 167.578 106.247H162.736C162.563 106.247 162.444 106.12 162.444 105.96V99.7538C162.444 99.6051 162.562 99.4777 162.736 99.4777H167.588C167.804 99.4777 167.804 99.7977 167.578 99.7977H162.801V102.736H167.361C167.588 102.736 167.588 103.056 167.361 103.056H162.801V105.909V105.906ZM181.841 99.5839C181.895 99.5088 181.959 99.4777 182.025 99.4777C182.11 99.4777 182.198 99.5414 182.198 99.6688V106.056C182.198 106.183 182.1 106.247 182.014 106.247C181.916 106.247 181.831 106.183 181.831 106.056V100.244L179.042 104.555C178.956 104.715 178.75 104.715 178.664 104.555L175.876 100.265V106.056C175.876 106.183 175.79 106.247 175.692 106.247C175.606 106.247 175.508 106.183 175.508 106.056V99.6688C175.508 99.5414 175.594 99.4777 175.68 99.4777C175.745 99.4777 175.81 99.5102 175.853 99.5839L178.857 104.193L181.841 99.5839ZM189.706 104.821C189.642 104.609 189.966 104.513 190.031 104.736C190.366 105.875 192.192 106.056 192.831 106.056C193.9 106.056 195.554 105.693 195.554 104.374C195.554 101.926 189.847 104.129 189.847 101.255C189.847 99.7863 191.781 99.3701 192.711 99.3701C193.749 99.3701 195.24 99.6037 195.652 100.711C195.759 100.966 195.424 101.041 195.348 100.828C194.98 99.8274 193.64 99.6901 192.723 99.6901C191.544 99.6901 190.204 100.254 190.204 101.266C190.204 103.704 195.91 101.575 195.91 104.364C195.91 105.929 194.139 106.355 192.831 106.355C191.728 106.355 190.053 106.056 189.706 104.821Z" fill="#1F2772" stroke="#1F2772" stroke-width="0.45885"/>
<path d="M1 84.3117L4.64797 79.2564C9.28541 82.4497 13.249 83.7797 16.5359 83.7797C20.7241 83.7797 23.2447 82.0059 23.2447 80.3651C23.2447 74.4236 1.40517 76.7294 1.40517 65.6876C1.40517 60.1002 6.85438 56.0654 14.0138 56.0654C18.202 56.0654 23.02 57.4836 28.1977 60.7652L24.8199 65.8206C20.5421 63.1606 16.6695 62.007 13.6073 62.007C9.73466 62.007 7.52825 63.736 7.52825 65.4664C7.52825 70.2992 29.3677 68.5702 29.3677 80.2769C29.3677 85.3757 24.2341 89.7661 16.3098 89.7661C11.7619 89.7661 6.58285 88.0805 1 84.3117ZM34.0222 88.7021V57.1294H40.0558V76.1526L56.6266 57.1294H64.5523L50.9087 72.871L64.5523 88.7021H56.5825L46.8555 77.5722L40.0558 85.2875V88.7021H34.0222ZM78.223 88.7021V80.9867L65.7948 57.1308H72.6842L81.2397 74.0694L89.8848 57.1308H96.7287L84.2551 80.9867V88.7021H78.2215H78.223Z" fill="#1F2772"/>
<path d="M166.598 89.227V57.6543H173.396L189.877 80.358V57.6543L195.911 59.7459V89.2256H189.112L172.631 66.5667V89.2256H166.598V89.227Z" fill="#1F2772"/>
<path d="M136.254 89.227V57.6543H161.515V63.5959H142.287V70.4251H156.201V76.2784H142.287V83.3288H161.515V89.227H136.254Z" fill="#1F2772"/>
<path d="M120.659 76.3686L116.164 70.4494L131.646 70.4704C131.781 71.4014 131.871 72.422 131.871 73.3964C131.871 82.7525 124.171 90.2915 114.759 90.2915C105.348 90.2915 97.6484 82.7525 97.6484 73.3964C97.6484 64.0402 105.304 56.5908 114.759 56.5908C119.127 56.5908 123.045 58.1868 126.062 60.8034L122.144 65.3268C120.162 63.6412 117.55 62.5772 114.758 62.5772C108.679 62.5772 103.726 67.4548 103.726 73.3964C103.726 79.3379 108.679 84.3485 114.758 84.3485C119.846 84.3485 124.124 80.9787 125.43 76.3672H120.658L120.659 76.3686Z" fill="#1F2772"/>
<path d="M88.8652 42.6477H109.732V35.7598H95.8598L88.8652 42.6477Z" fill="#1F2772"/>
<path d="M107.753 0.0107422H86.875V7.98092H99.5064L107.753 0.0107422Z" fill="#1F2772"/>
<path d="M77.9961 42.6464L86.8701 35.6842V7.97266H77.9961V42.6464Z" fill="#1F2772"/>
<path d="M109.732 7.98075V35.7581H118.919V0.0175781L109.732 7.98075Z" fill="#1F2772"/>
<path d="M86.6028 0.634198V7.70838L78.7297 7.69438L86.6028 0.634198ZM86.8871 0L86.4109 0.426999L78.5377 7.48718L77.9961 7.97298H78.7282L86.6014 7.98838H86.8857V7.70838V0L86.8871 0Z" fill="#1F2772"/>
</svg>
