<svg width="51" height="50" viewBox="0 0 51 50" fill="none" xmlns="http://www.w3.org/2000/svg">
<path d="M25.5704 0.0996094L21.2686 7.616C20.7802 8.43296 19.9062 8.35752 19.0314 7.90102L15.9164 6.39L18.2383 17.9348C18.7267 20.0442 17.1604 20.0442 16.3873 19.1325L10.9522 13.4333L10.0695 16.3281C9.96817 16.7082 9.52022 17.107 8.84891 17.0117L1.97623 15.6589L3.78146 21.8066C4.16795 23.1748 4.46899 23.7412 3.39116 24.1024L0.941406 25.181L12.7729 34.1835C13.2417 34.5241 13.4781 35.137 13.3115 35.6912L12.2758 38.8744L24.0754 37.6018C24.4374 37.5975 24.674 37.7857 24.6714 38.1756L23.9451 49.9391H27.1987L26.4722 38.1756C26.4696 37.7857 26.7064 37.5973 27.0684 37.6018L38.868 38.8744L37.8323 35.6912C37.6655 35.137 37.9019 34.5241 38.3707 34.1835L50.2022 25.181L47.7524 24.1024C46.6748 23.7412 46.9758 23.1748 47.3622 21.8066L49.1674 15.6589L42.2947 17.0117C41.6236 17.107 41.1756 16.7082 41.0741 16.3281L40.1914 13.4333L34.7559 19.1333C33.983 20.0451 32.4167 20.0451 32.9052 17.9358L35.2268 6.39095L32.112 7.90197C31.2369 8.35839 30.363 8.43391 29.8745 7.61695L25.574 0.101342L25.5704 0.0996094Z" fill="white"/>
</svg>
