<svg width="50" height="51" viewBox="0 0 50 51" fill="none" xmlns="http://www.w3.org/2000/svg">
<path d="M40.0312 31.6966C38.7097 30.0567 37.1098 28.5787 35.3949 27.3024C32.5718 25.2018 29.1299 23.5007 25.4442 23.6577V23.1367C29.7752 23.0065 34.1676 23.6891 37.9534 25.7433C39.0246 26.3246 40.0339 27.0005 40.9335 27.7975C41.2019 28.0357 41.4626 28.2827 41.7052 28.5443C41.839 28.6881 42.001 28.8922 41.8444 28.694C42.4842 29.5067 43.9557 28.7174 43.3083 27.894C40.7833 24.6834 36.1988 22.8194 32.1655 22.0471C30.1756 21.6665 28.1489 21.5163 26.1222 21.5401C30.2903 20.4544 34.6604 20.4378 38.7629 21.8757C40.0675 22.3329 41.3179 22.9398 42.4738 23.667C43.0171 24.0093 43.2246 24.1323 43.6723 24.5235C44.4686 25.2194 45.6699 24.1012 44.8709 23.4033C43.291 22.0228 41.2165 21.0498 39.2139 20.348C35.0717 18.896 30.581 18.8475 26.3347 19.8461C29.9786 17.8579 34.0725 16.6266 38.3385 16.8737C39.6184 16.9478 40.8879 17.1621 42.1111 17.5261C42.7417 17.7137 42.9492 17.7746 43.392 17.9931C44.3553 18.4703 45.2126 17.1034 44.2474 16.6254C42.4719 15.7463 40.3156 15.404 38.3385 15.2895C33.8673 15.0305 29.5045 16.3098 25.6618 18.3789C29.0111 14.786 34.4715 12.8726 39.5251 12.9262C40.6163 12.9372 40.6172 11.353 39.5251 11.3416C34.5385 11.2892 29.1022 13.0197 25.4442 16.2928V16.2418C25.4469 16.2379 25.4501 16.2345 25.4534 16.2303C27.521 13.2702 30.6739 10.8005 33.8505 8.90965C34.7683 8.36361 33.9187 6.99201 32.9954 7.54191C30.2548 9.17296 27.5665 11.1995 25.4579 13.5782C25.4633 13.5527 25.467 13.5263 25.4693 13.4991C26.0043 12.0322 26.8839 10.7002 27.9969 9.55272C28.3609 9.17767 28.7459 8.81996 29.1532 8.48608C29.2733 8.38782 29.3957 8.29257 29.519 8.19817C29.5286 8.19054 29.5363 8.18451 29.544 8.17858C29.5477 8.17651 29.5513 8.17396 29.5563 8.17057C30.4282 7.5747 29.5836 6.19924 28.7008 6.80237C27.4323 7.66909 26.327 8.77785 25.4442 10.0206V5.43755C25.4442 5.03443 25.0911 4.70442 24.6597 4.70442H24.5173C24.0855 4.70442 23.7324 5.03443 23.7324 5.43755V9.96573C22.8565 8.74553 21.7657 7.65638 20.5158 6.80237C19.6343 6.20018 18.7875 7.57422 19.6603 8.17057C19.6631 8.17227 19.6644 8.17311 19.6662 8.17434C19.668 8.17604 19.6689 8.17688 19.6707 8.1782C19.8032 8.27985 19.9352 8.38103 20.0634 8.48608C20.4708 8.81996 20.8557 9.17805 21.2197 9.55272C22.3231 10.6887 23.1959 12.0089 23.7324 13.4595V13.5493C21.6279 11.1833 18.951 9.16655 16.2216 7.54191C15.2988 6.99248 14.4475 8.36323 15.3662 8.90965C18.5273 10.7917 21.6643 13.2481 23.7324 16.1878V16.2562C20.0748 13.0065 14.66 11.2892 9.69151 11.3416C8.60123 11.353 8.59851 12.9372 9.69151 12.9262C14.7455 12.8726 20.2054 14.786 23.5554 18.3789C19.7127 16.3098 15.3493 15.0305 10.8782 15.2895C8.90067 15.404 6.7452 15.7463 4.96923 16.6254C4.00497 17.1026 4.86044 18.4708 5.8251 17.9931C5.94115 17.9358 6.06173 17.8864 6.18141 17.837C6.11043 17.8664 6.32336 17.783 6.48851 17.7252C6.69237 17.6538 6.89855 17.5878 7.10554 17.5261C8.3282 17.1621 9.59825 16.9478 10.8782 16.8737C15.1441 16.6266 19.238 17.8579 22.8819 19.8461C18.6356 18.8475 14.1453 18.896 10.0027 20.348C8.00013 21.0498 5.92562 22.0228 4.34575 23.4033C3.54724 24.1012 4.74762 25.2197 5.54432 24.5235C5.99166 24.1327 6.20006 24.009 6.74288 23.667C7.8982 22.9398 9.14909 22.3329 10.4537 21.8757C14.5572 20.4373 18.9273 20.4544 23.0962 21.5405C17.2337 21.487 11.0411 22.9589 6.81568 26.9222C6.49083 27.2267 6.18141 27.5474 5.90838 27.894C5.26181 28.7165 6.732 29.5076 7.37221 28.694C7.21614 28.8922 7.37766 28.6881 7.51145 28.5443C7.75443 28.2827 8.01475 28.0357 8.28314 27.7975C9.18277 27.0005 10.192 26.3246 11.2636 25.7433C15.0377 23.6955 19.4146 23.0107 23.7324 23.135V23.656C20.0616 23.5126 16.6344 25.2096 13.8218 27.3024C12.1068 28.5787 10.507 30.0567 9.18549 31.6966C8.54346 32.4932 9.93631 33.2659 10.6048 32.5459C10.5816 32.5739 10.5715 32.5876 10.6189 32.5331C10.7012 32.4383 10.7818 32.3422 10.8646 32.2478C11.1267 31.9496 11.3974 31.6578 11.675 31.3716C12.6164 30.3985 13.6316 29.4846 14.7173 28.6519C17.2632 26.6981 20.3793 25.1291 23.7324 25.2414V25.5022C19.1775 26.3226 15.3803 29.8648 13.2539 33.5976C12.7416 34.4976 14.2041 35.2988 14.7173 34.3976C16.5301 31.2151 19.8123 27.8732 23.7324 27.0924V28.9058C22.871 29.1686 22.244 29.9273 22.244 30.8175V31.5316C21.9628 31.4168 21.6838 31.2977 21.4076 31.176C20.7869 30.9021 20.0362 31.0144 19.6685 31.6022C19.345 32.1189 19.5006 32.9529 20.1244 33.228C20.8161 33.533 21.5236 33.832 22.244 34.0935V48.0373C22.244 49.143 23.2123 50.0481 24.3953 50.0481H24.6079C25.7909 50.0481 26.7593 49.143 26.7593 48.0373V34.1713C27.5538 33.8924 28.3318 33.5632 29.0922 33.228C29.7133 32.9542 29.8731 32.1214 29.5481 31.6022C29.1764 31.008 28.4319 30.9012 27.8091 31.176C27.4631 31.3283 27.1133 31.4767 26.7593 31.617V30.8175C26.7593 29.9882 26.2151 29.272 25.4442 28.9653V27.0851C29.3821 27.851 32.6805 31.2045 34.4994 34.3976C35.0121 35.2975 36.476 34.4984 35.9627 33.5976C33.8304 29.8542 30.0168 26.3017 25.4442 25.4949V25.2431C28.8128 25.1173 31.9434 26.6905 34.4998 28.6519C35.5682 29.4719 36.5688 30.3705 37.4984 31.327C37.7906 31.6277 38.0763 31.9339 38.3521 32.2478C38.4303 32.3371 38.5072 32.4272 38.5846 32.5169C38.6501 32.5935 38.6329 32.5722 38.6041 32.5374C39.2689 33.271 40.6759 32.497 40.0312 31.6966ZM46.7096 24.3981C46.3374 29.5587 43.8985 34.3696 39.9361 37.9667C38.7602 39.0341 40.5589 40.7137 41.7343 39.6471C46.1908 35.6012 48.8351 30.1842 49.2523 24.3981C49.3625 22.8713 46.8193 22.8776 46.7096 24.3981ZM2.54477 24.1773C2.45192 22.657 -0.0917118 22.6472 0.00255639 24.1773C0.37479 30.2531 3.22229 35.961 8.02927 40.0796C9.23378 41.1114 11.0366 39.4352 9.82752 38.3988C5.52072 34.7094 2.8797 29.6407 2.54477 24.1773ZM0.0503458 21.2254C0.520376 16.1809 2.66314 11.4296 6.27699 7.64526C12.7392 0.876687 23.2733 -1.73329 32.474 1.17693C41.6606 4.08263 48.1516 11.8234 49.1759 20.8013C49.2492 21.4436 48.5357 21.9897 47.9045 21.9897C47.1656 21.9897 46.7064 21.4393 46.6337 20.8013C46.1262 16.3575 44.0258 12.1164 40.7447 8.86885C34.74 2.92574 25.3896 0.836271 17.1486 3.57221C9.11542 6.23928 3.33108 13.303 2.59307 21.2254C2.45151 22.7399 -0.0917118 22.7488 0.0503458 21.2254Z" fill="url(#paint0_linear_1862_47159)"/>
<defs>
<linearGradient id="paint0_linear_1862_47159" x1="24.6279" y1="0" x2="24.6279" y2="50.0481" gradientUnits="userSpaceOnUse">
<stop offset="0.174941" stop-color="#177938"/>
<stop offset="0.500039" stop-color="white"/>
<stop offset="0.844941" stop-color="#FF0000"/>
</linearGradient>
</defs>
</svg>
